<svg width="208" height="46" viewBox="0 0 208 46" fill="none" xmlns="http://www.w3.org/2000/svg">
<path d="M5.29845 36.5542H0.786222L9.00167 13.2182H14.2204L22.4472 36.5542H17.935L11.7022 18.0039H11.5199L5.29845 36.5542ZM5.44658 27.4044H17.7527V30.8H5.44658V27.4044ZM30.3381 36.8619C28.9632 36.8619 27.7326 36.5086 26.6463 35.8022C25.56 35.0957 24.7016 34.0702 24.0711 32.7256C23.4406 31.3811 23.1254 29.7479 23.1254 27.826C23.1254 25.8813 23.4444 24.2405 24.0825 22.9036C24.7282 21.559 25.598 20.5449 26.6919 19.8612C27.7858 19.17 29.005 18.8243 30.3495 18.8243C31.375 18.8243 32.2182 18.999 32.8791 19.3485C33.54 19.6903 34.0641 20.1043 34.4515 20.5905C34.839 21.0691 35.139 21.521 35.3517 21.9464H35.5226V13.2182H39.6588V36.5542H35.6024V33.7967H35.3517C35.139 34.2221 34.8314 34.6741 34.4288 35.1527C34.0262 35.6236 33.4944 36.0263 32.8335 36.3605C32.1726 36.6947 31.3408 36.8619 30.3381 36.8619ZM31.489 33.4777C32.3626 33.4777 33.107 33.2422 33.7223 32.7712C34.3376 32.2927 34.8048 31.628 35.1238 30.7772C35.4429 29.9264 35.6024 28.9351 35.6024 27.8032C35.6024 26.6714 35.4429 25.6876 35.1238 24.852C34.8124 24.0164 34.349 23.3669 33.7337 22.9036C33.126 22.4402 32.3777 22.2085 31.489 22.2085C30.5698 22.2085 29.8026 22.4478 29.1873 22.9264C28.572 23.4049 28.1086 24.0658 27.7972 24.909C27.4857 25.7522 27.33 26.7169 27.33 27.8032C27.33 28.8971 27.4857 29.8732 27.7972 30.7316C28.1162 31.5824 28.5834 32.2547 29.1987 32.7484C29.8216 33.2346 30.585 33.4777 31.489 33.4777ZM43.0917 36.5542V19.0522H47.2165V36.5542H43.0917ZM45.1655 16.5682C44.5122 16.5682 43.9501 16.3517 43.4791 15.9187C43.0081 15.4781 42.7726 14.9502 42.7726 14.3349C42.7726 13.712 43.0081 13.184 43.4791 12.7511C43.9501 12.3105 44.5122 12.0902 45.1655 12.0902C45.8263 12.0902 46.3885 12.3105 46.8519 12.7511C47.3228 13.184 47.5583 13.712 47.5583 14.3349C47.5583 14.9502 47.3228 15.4781 46.8519 15.9187C46.3885 16.3517 45.8263 16.5682 45.1655 16.5682ZM54.6203 13.2182V36.5542H50.4955V13.2182H54.6203ZM71.7322 23.6784L67.972 24.0886C67.8657 23.7088 67.6796 23.3518 67.4137 23.0175C67.1554 22.6833 66.806 22.4136 66.3654 22.2085C65.9248 22.0034 65.3855 21.9009 64.7474 21.9009C63.889 21.9009 63.1674 22.087 62.5824 22.4592C62.0051 22.8314 61.7203 23.3138 61.7279 23.9063C61.7203 24.4152 61.9064 24.8292 62.2862 25.1483C62.6736 25.4673 63.3117 25.7294 64.2005 25.9345L67.1858 26.5726C68.8418 26.9296 70.0724 27.4956 70.8776 28.2704C71.6905 29.0452 72.1007 30.0593 72.1083 31.3127C72.1007 32.4142 71.7778 33.3865 71.1397 34.2297C70.5092 35.0653 69.6318 35.7186 68.5076 36.1896C67.3833 36.6605 66.092 36.896 64.6335 36.896C62.4913 36.896 60.7669 36.4479 59.4603 35.5515C58.1538 34.6475 57.3751 33.3903 57.1245 31.7799L61.1467 31.3925C61.329 32.1825 61.7165 32.7788 62.309 33.1814C62.9015 33.584 63.6725 33.7853 64.6221 33.7853C65.602 33.7853 66.3882 33.584 66.9807 33.1814C67.5808 32.7788 67.8809 32.2813 67.8809 31.6887C67.8809 31.1874 67.6872 30.7734 67.2998 30.4467C66.92 30.1201 66.3274 29.8694 65.5222 29.6947L62.5369 29.068C60.8581 28.7186 59.6161 28.1299 58.8109 27.3019C58.0056 26.4663 57.6068 25.4104 57.6144 24.1342C57.6068 23.0555 57.8993 22.1211 58.4918 21.3311C59.0919 20.5335 59.9237 19.9182 60.9872 19.4852C62.0583 19.0446 63.2927 18.8243 64.6904 18.8243C66.7414 18.8243 68.3557 19.2611 69.5331 20.1347C70.7181 21.0083 71.4512 22.1895 71.7322 23.6784ZM82.1812 36.896C80.4721 36.896 78.9908 36.52 77.7374 35.768C76.484 35.0159 75.5116 33.9638 74.8204 32.6117C74.1367 31.2595 73.7949 29.6795 73.7949 27.8716C73.7949 26.0636 74.1367 24.4798 74.8204 23.1201C75.5116 21.7603 76.484 20.7044 77.7374 19.9524C78.9908 19.2004 80.4721 18.8243 82.1812 18.8243C83.8904 18.8243 85.3717 19.2004 86.6251 19.9524C87.8785 20.7044 88.847 21.7603 89.5307 23.1201C90.222 24.4798 90.5676 26.0636 90.5676 27.8716C90.5676 29.6795 90.222 31.2595 89.5307 32.6117C88.847 33.9638 87.8785 35.0159 86.6251 35.768C85.3717 36.52 83.8904 36.896 82.1812 36.896ZM82.204 33.5916C83.1308 33.5916 83.9056 33.3371 84.5285 32.8282C85.1514 32.3116 85.6148 31.6204 85.9186 30.7544C86.2301 29.8884 86.3858 28.9237 86.3858 27.8602C86.3858 26.7891 86.2301 25.8206 85.9186 24.9546C85.6148 24.081 85.1514 23.3859 84.5285 22.8694C83.9056 22.3528 83.1308 22.0946 82.204 22.0946C81.2545 22.0946 80.4645 22.3528 79.834 22.8694C79.2111 23.3859 78.7439 24.081 78.4324 24.9546C78.1286 25.8206 77.9767 26.7891 77.9767 27.8602C77.9767 28.9237 78.1286 29.8884 78.4324 30.7544C78.7439 31.6204 79.2111 32.3116 79.834 32.8282C80.4645 33.3371 81.2545 33.5916 82.204 33.5916ZM97.2308 26.2991V36.5542H93.106V19.0522H97.0485V22.0262H97.2536C97.6562 21.0463 98.2981 20.2676 99.1792 19.6903C100.068 19.113 101.166 18.8243 102.472 18.8243C103.68 18.8243 104.732 19.0826 105.629 19.5992C106.532 20.1157 107.231 20.864 107.725 21.8439C108.226 22.8238 108.473 24.0126 108.466 25.4104V36.5542H104.341V26.0485C104.341 24.8786 104.037 23.9633 103.429 23.3024C102.829 22.6415 101.997 22.3111 100.934 22.3111C100.212 22.3111 99.5704 22.4706 99.0083 22.7896C98.4538 23.1011 98.017 23.5531 97.6979 24.1456C97.3865 24.7381 97.2308 25.4559 97.2308 26.2991Z" fill="black"/>
<path d="M129.444 19.0522C129.315 17.7532 128.741 16.7201 127.723 15.9529C126.705 15.1857 125.425 14.8021 123.883 14.8021C122.797 14.8021 121.84 14.9882 121.012 15.3604C120.191 15.7326 119.546 16.2492 119.075 16.9101C118.611 17.5633 118.38 18.3078 118.38 19.1434C118.38 19.7587 118.513 20.298 118.779 20.7614C119.044 21.2248 119.401 21.6236 119.85 21.9578C120.305 22.2845 120.807 22.5655 121.354 22.801C121.908 23.0365 122.467 23.234 123.029 23.3935L125.49 24.1C126.234 24.3051 126.979 24.5672 127.723 24.8862C128.468 25.2053 129.148 25.6079 129.763 26.094C130.386 26.5726 130.883 27.1613 131.256 27.8602C131.635 28.5515 131.825 29.3833 131.825 30.3556C131.825 31.6014 131.502 32.7218 130.857 33.717C130.211 34.7121 129.284 35.5021 128.076 36.087C126.869 36.6643 125.422 36.953 123.735 36.953C122.148 36.953 120.769 36.6909 119.599 36.1668C118.429 35.635 117.51 34.902 116.842 33.9676C116.173 33.0333 115.797 31.9508 115.713 30.7202H117.901C117.977 31.6394 118.281 32.418 118.813 33.0561C119.344 33.6942 120.036 34.1803 120.887 34.5146C121.737 34.8412 122.687 35.0045 123.735 35.0045C124.897 35.0045 125.931 34.8108 126.834 34.4234C127.746 34.0284 128.46 33.4815 128.977 32.7826C129.501 32.0762 129.763 31.2557 129.763 30.3214C129.763 29.5314 129.558 28.8705 129.148 28.3388C128.737 27.7994 128.164 27.3474 127.427 26.9828C126.698 26.6182 125.851 26.2953 124.886 26.0143L122.094 25.1939C120.264 24.6469 118.843 23.8911 117.833 22.9264C116.823 21.9616 116.317 20.731 116.317 19.2345C116.317 17.9811 116.652 16.8797 117.32 15.9301C117.996 14.973 118.908 14.2285 120.055 13.6968C121.209 13.1575 122.505 12.8878 123.94 12.8878C125.391 12.8878 126.675 13.1537 127.792 13.6854C128.908 14.2172 129.793 14.9502 130.447 15.8845C131.107 16.8113 131.461 17.8672 131.506 19.0522H129.444ZM142.371 36.9188C140.859 36.9188 139.523 36.5352 138.36 35.768C137.206 35.0007 136.302 33.9411 135.648 32.5889C134.995 31.2292 134.668 29.6605 134.668 27.883C134.668 26.0902 134.995 24.514 135.648 23.1542C136.302 21.7869 137.206 20.7234 138.36 19.9638C139.523 19.1966 140.859 18.8129 142.371 18.8129C143.883 18.8129 145.216 19.1966 146.371 19.9638C147.525 20.731 148.429 21.7945 149.083 23.1542C149.743 24.514 150.074 26.0902 150.074 27.883C150.074 29.6605 149.747 31.2292 149.094 32.5889C148.441 33.9411 147.533 35.0007 146.371 35.768C145.216 36.5352 143.883 36.9188 142.371 36.9188ZM142.371 35.0615C143.587 35.0615 144.616 34.7349 145.459 34.0816C146.302 33.4283 146.94 32.5585 147.373 31.4722C147.814 30.386 148.034 29.1895 148.034 27.883C148.034 26.5764 147.814 25.3762 147.373 24.2823C146.94 23.1884 146.302 22.3111 145.459 21.6502C144.616 20.9893 143.587 20.6588 142.371 20.6588C141.163 20.6588 140.134 20.9893 139.283 21.6502C138.44 22.3111 137.798 23.1884 137.358 24.2823C136.925 25.3762 136.708 26.5764 136.708 27.883C136.708 29.1895 136.925 30.386 137.358 31.4722C137.798 32.5585 138.44 33.4283 139.283 34.0816C140.126 34.7349 141.156 35.0615 142.371 35.0615ZM155.592 25.6155V36.5542H153.564V19.0522H155.535V21.7983H155.717C156.127 20.9019 156.765 20.1841 157.631 19.6447C158.505 19.0978 159.584 18.8243 160.868 18.8243C162.045 18.8243 163.078 19.0712 163.967 19.565C164.863 20.0511 165.558 20.769 166.052 21.7185C166.553 22.6681 166.804 23.8341 166.804 25.2167V36.5542H164.776V25.342C164.776 23.9063 164.373 22.7706 163.568 21.935C162.77 21.0994 161.699 20.6816 160.355 20.6816C159.436 20.6816 158.619 20.8791 157.905 21.2742C157.191 21.6692 156.625 22.2389 156.207 22.9833C155.797 23.7202 155.592 24.5976 155.592 25.6155ZM173.211 25.6155V36.5542H171.183V13.2182H173.211V21.7983H173.393C173.803 20.8943 174.438 20.1727 175.296 19.6333C176.162 19.094 177.256 18.8243 178.578 18.8243C179.763 18.8243 180.803 19.0674 181.7 19.5536C182.596 20.0397 183.295 20.7576 183.796 21.7071C184.298 22.6567 184.548 23.8265 184.548 25.2167V36.5542H182.509V25.342C182.509 23.8987 182.106 22.763 181.301 21.935C180.503 21.0994 179.425 20.6816 178.065 20.6816C177.131 20.6816 176.299 20.8791 175.57 21.2742C174.84 21.6692 174.263 22.2389 173.838 22.9833C173.42 23.7202 173.211 24.5976 173.211 25.6155ZM188.95 36.5542V19.0522H190.989V36.5542H188.95ZM189.987 16.0441C189.569 16.0441 189.212 15.9035 188.916 15.6225C188.619 15.3338 188.471 14.9882 188.471 14.5856C188.471 14.183 188.619 13.8411 188.916 13.5601C189.212 13.2714 189.569 13.1271 189.987 13.1271C190.404 13.1271 190.761 13.2714 191.058 13.5601C191.354 13.8411 191.502 14.183 191.502 14.5856C191.502 14.9882 191.354 15.3338 191.058 15.6225C190.761 15.9035 190.404 16.0441 189.987 16.0441Z" fill="black"/>
<path d="M195.284 3.19602V2.18182H200.062V3.19602H198.281V8H197.065V3.19602H195.284ZM200.609 2.18182H202.126L203.729 6.09091H203.797L205.399 2.18182H206.916V8H205.723V4.21307H205.675L204.169 7.97159H203.357L201.851 4.19886H201.803V8H200.609V2.18182Z" fill="black"/>
</svg>
