<svg width="25" height="24" viewBox="0 0 25 24" fill="none" xmlns="http://www.w3.org/2000/svg">
<g clip-path="url(#clip0_148_87)">
<path d="M20.8496 0H4.15039C1.85819 0 0 1.82668 0 4.08V19.8816C0 22.1349 1.85819 23.9616 4.15039 23.9616H20.8496C23.1418 23.9616 25 22.1349 25 19.8816V4.08C25 1.82668 23.1418 0 20.8496 0Z" fill="#470137"/>
<path d="M13.1423 6.30153L10.0228 11.3629L13.3602 16.7375C13.3817 16.7751 13.3877 16.8193 13.377 16.8611C13.3719 16.879 13.3607 16.8834 13.3436 16.8841L13.3247 16.8838L13.3017 16.8832C13.2892 16.8832 13.2752 16.8838 13.2597 16.8863H10.8534L10.8061 16.8855C10.6765 16.8822 10.583 16.8639 10.5261 16.7704C10.3034 16.344 10.0798 15.9182 9.85517 15.4928C9.65424 15.1134 9.44784 14.7368 9.23603 14.3631L9.14247 14.1986C8.88913 13.756 8.64035 13.3108 8.39618 12.8632H8.37938C8.1539 13.3061 7.92188 13.7458 7.68339 14.1821C7.44283 14.6218 7.20523 15.0587 6.9706 15.4928C6.73579 15.9271 6.4954 16.3586 6.2495 16.7869C6.20995 16.8743 6.14423 16.8925 6.05272 16.8955L6.01464 16.8961H3.71708L3.70712 16.8964L3.67431 16.8993C3.65605 16.9003 3.64511 16.8965 3.64159 16.8694C3.63534 16.8292 3.6443 16.7881 3.66679 16.754L6.90351 11.5278L3.75058 6.28521C3.71711 6.24143 3.71151 6.20572 3.73378 6.17807C3.74616 6.16399 3.7617 6.15293 3.77917 6.14576C3.79664 6.1386 3.81557 6.13553 3.83446 6.13679H6.19911C6.25068 6.13405 6.30222 6.14251 6.35009 6.16156C6.39013 6.18393 6.4246 6.21494 6.45067 6.25228C6.65191 6.69196 6.87554 7.13158 7.12157 7.57113C7.36566 8.00785 7.61444 8.44201 7.86786 8.87356C8.1174 9.29843 8.34958 9.73292 8.56386 10.176H8.58065C8.80025 9.73302 9.02668 9.29336 9.25985 8.85715C9.48889 8.42847 9.72366 7.99705 9.96415 7.56287C10.2015 7.13433 10.4335 6.70294 10.6601 6.26879C10.673 6.22809 10.6961 6.19123 10.7272 6.16156C10.7687 6.14093 10.8152 6.13234 10.8614 6.13679H13.0584C13.0786 6.13184 13.0999 6.13348 13.119 6.14144C13.1382 6.14941 13.1542 6.16328 13.1647 6.18097C13.1752 6.19866 13.1795 6.21922 13.1771 6.23954C13.1746 6.25986 13.1655 6.27885 13.1512 6.29366L13.1423 6.30153ZM18.071 17.0989L17.9554 17.1002C17.1834 17.1118 16.4186 16.9541 15.7164 16.6386C15.0623 16.341 14.5155 15.8552 14.1483 15.2455C13.7781 14.641 13.5881 13.8879 13.5785 12.9861L13.5781 12.9127C13.5718 12.156 13.7685 11.4111 14.1484 10.753C14.5286 10.1016 15.0829 9.56489 15.7512 9.20102L15.8087 9.1703C16.5352 8.77459 17.4129 8.57673 18.4417 8.57673L18.4866 8.57721L18.538 8.57884L18.5956 8.58134L18.6597 8.58499L18.7673 8.59247L18.8891 8.60207L18.9783 8.60975V5.36188C18.9783 5.28502 19.0118 5.24655 19.0789 5.24649H21.1921C21.2057 5.24456 21.2197 5.24579 21.2328 5.25008C21.2459 5.25437 21.2578 5.2616 21.2675 5.27119C21.2773 5.28079 21.2847 5.29249 21.289 5.30536C21.2934 5.31824 21.2946 5.33194 21.2927 5.34537V15.0889C21.2927 15.2525 21.2991 15.4287 21.312 15.6173L21.3433 16.045L21.3599 16.2923C21.3619 16.3266 21.3534 16.3607 21.3354 16.3901C21.3175 16.4195 21.2909 16.4429 21.2592 16.4573C20.714 16.6807 20.1462 16.8465 19.5653 16.9518C19.0722 17.0413 18.5724 17.0905 18.071 17.0989ZM18.9783 15.0559V10.5551C18.8877 10.531 18.7951 10.5144 18.7016 10.5057C18.5874 10.4943 18.4726 10.4888 18.3578 10.4891C17.9508 10.4851 17.5486 10.5755 17.1839 10.753C16.8286 10.9267 16.5253 11.188 16.3034 11.5114C16.082 11.8297 15.9675 12.2454 15.96 12.7584L15.9596 12.8138C15.9514 13.1731 16.0111 13.5309 16.1356 13.8688C16.237 14.1412 16.3973 14.3887 16.6054 14.5943C16.8045 14.7835 17.0456 14.9245 17.3097 15.0064C17.5886 15.0952 17.8801 15.1397 18.1733 15.1384C18.3298 15.1384 18.4751 15.1329 18.6094 15.1218C18.7165 15.1139 18.8226 15.0965 18.9266 15.07L18.9783 15.0559Z" fill="#FF61F6"/>
</g>
<defs>
<clipPath id="clip0_148_87">
<rect width="25" height="24" fill="white"/>
</clipPath>
</defs>
</svg>
