<svg width="40" height="40" viewBox="0 0 40 40" fill="none" xmlns="http://www.w3.org/2000/svg">
<rect width="40" height="40" rx="20" fill="#15A450"/>
<path d="M20.3414 31.567L19.721 31.3612C19.721 31.3612 19.8036 28.2216 18.6675 28.0011C17.9239 27.1352 18.7774 -8.96448 21.4957 27.8779C20.9792 28.1388 20.5844 28.5899 20.3943 29.1363C20.2914 29.9425 20.2737 30.7571 20.3414 31.567Z" fill="white"/>
<path d="M20.6771 28.5337C22.3294 27.2902 23.5947 25.6033 24.3261 23.669C25.0573 21.7348 25.2246 19.6327 24.8082 17.6071C23.5936 12.2491 20.7176 10.4876 20.4078 9.8151C20.1413 9.39584 19.9131 8.95341 19.7261 8.49316L19.955 23.4219C19.955 23.4219 19.4807 27.9843 20.6771 28.5337Z" fill="url(#paint0_linear_191_2052)"/>
<path d="M19.4053 28.7322C19.4053 28.7322 14.3482 25.2877 14.6406 19.1943C14.6679 17.3574 15.0891 15.5477 15.8757 13.8875C16.6624 12.2273 17.7962 10.7552 19.2004 9.57068C19.3644 9.43106 19.4946 9.25622 19.5814 9.05922C19.6683 8.86222 19.7095 8.64814 19.702 8.43298C20.0167 9.11048 19.9655 18.5483 19.9986 19.6522C20.1267 23.9459 19.7598 27.9216 19.4053 28.7322Z" fill="white"/>
<defs>
<linearGradient id="paint0_linear_191_2052" x1="22.379" y1="8.49316" x2="22.379" y2="28.5337" gradientUnits="userSpaceOnUse">
<stop stop-color="white"/>
<stop offset="1" stop-color="#DADADD"/>
</linearGradient>
</defs>
</svg>
