<svg width="40" height="40" viewBox="0 0 40 40" fill="none" xmlns="http://www.w3.org/2000/svg">
<rect width="40" height="40" rx="20" fill="#212121"/>
<g clip-path="url(#clip0_191_2041)">
<path d="M19.8293 22.3544C21.1297 22.3544 22.184 21.3002 22.184 19.9997C22.184 18.6993 21.1297 17.645 19.8293 17.645C18.5288 17.645 17.4746 18.6993 17.4746 19.9997C17.4746 21.3002 18.5288 22.3544 19.8293 22.3544Z" fill="#61DAFB"/>
<path d="M28.7729 16.1165C28.3184 15.9512 27.8434 15.786 27.3477 15.6414C27.4716 15.1457 27.5749 14.65 27.6575 14.1749C28.0913 11.4484 27.6162 9.52744 26.2942 8.78385C25.9018 8.55665 25.468 8.45337 24.9723 8.45337C23.5264 8.45337 21.6882 9.52744 19.8292 11.3245C17.9702 9.52744 16.1318 8.45337 14.686 8.45337C14.1902 8.45337 13.7565 8.55665 13.364 8.78385C12.0421 9.5481 11.567 11.469 12.0008 14.1749C12.0834 14.65 12.1867 15.1457 12.3106 15.6414C11.8149 15.786 11.3398 15.9306 10.8854 16.1165C8.30348 17.1079 6.89893 18.4712 6.89893 19.9997C6.89893 21.5282 8.32414 22.8914 10.8854 23.8829C11.3398 24.0481 11.8149 24.2133 12.3106 24.358C12.1867 24.8537 12.0834 25.3494 12.0008 25.8245C11.567 28.551 12.0421 30.4719 13.364 31.2155C13.7565 31.4427 14.1902 31.546 14.686 31.546C16.1525 31.546 17.9908 30.4719 19.8292 28.6749C21.6882 30.4719 23.5264 31.546 24.9723 31.546C25.468 31.546 25.9018 31.4427 26.2942 31.2155C27.6162 30.4512 28.0913 28.5304 27.6575 25.8245C27.5749 25.3494 27.4716 24.8537 27.3477 24.358C27.8434 24.2133 28.3184 24.0688 28.7729 23.8829C31.3548 22.8914 32.7594 21.5282 32.7594 19.9997C32.7594 18.4712 31.3548 17.1079 28.7729 16.1165ZM25.7159 9.81662C26.5628 10.3123 26.852 11.8408 26.5008 14.0096C26.4389 14.4434 26.3355 14.8978 26.2116 15.3729C25.1375 15.125 24.0015 14.9598 22.8035 14.8565C22.1013 13.8651 21.3783 12.9769 20.6554 12.1713C22.1839 10.6635 23.733 9.63072 24.993 9.63072C25.2615 9.63072 25.5093 9.69269 25.7159 9.81662ZM23.4025 22.0652C23.0307 22.7262 22.597 23.3871 22.1426 24.0481C21.3783 24.1101 20.6141 24.1307 19.8292 24.1307C19.0236 24.1307 18.2594 24.1101 17.5157 24.0481C17.0613 23.3871 16.6482 22.7262 16.2764 22.0652C15.884 21.3836 15.5122 20.6813 15.1817 19.9997C15.5122 19.3181 15.884 18.6158 16.2764 17.9341C16.6482 17.2732 17.082 16.6122 17.5364 15.9512C18.3007 15.8893 19.0649 15.8686 19.8498 15.8686C20.6554 15.8686 21.4196 15.8893 22.1632 15.9512C22.6176 16.6122 23.0307 17.2732 23.4025 17.9341C23.795 18.6158 24.1668 19.3181 24.4973 19.9997C24.1461 20.6813 23.795 21.3629 23.4025 22.0652ZM25.1169 21.3836C25.4267 22.1065 25.6746 22.8088 25.9018 23.5111C25.1996 23.6763 24.456 23.8002 23.6711 23.9036C23.9189 23.5111 24.1874 23.098 24.4147 22.6643C24.6625 22.2304 24.8897 21.7967 25.1169 21.3836ZM19.8292 26.9811C19.3335 26.4441 18.8583 25.8658 18.4039 25.2668C18.879 25.2874 19.3541 25.3081 19.8292 25.3081C20.3042 25.3081 20.7793 25.2874 21.2543 25.2668C20.7999 25.8658 20.3249 26.4441 19.8292 26.9811ZM15.9872 23.8829C15.2023 23.7796 14.4588 23.6557 13.7565 23.4905C13.9837 22.8088 14.2315 22.0859 14.5414 21.3629C14.7686 21.776 14.9958 22.2098 15.2437 22.6229C15.4915 23.0774 15.7394 23.4698 15.9872 23.8829ZM14.5414 18.6158C14.2315 17.8928 13.9837 17.1905 13.7565 16.4883C14.4588 16.323 15.2023 16.1991 15.9872 16.0958C15.7394 16.4883 15.4709 16.9014 15.2437 17.3351C14.9958 17.7689 14.7686 18.2027 14.5414 18.6158ZM19.8292 13.0182C20.3249 13.5552 20.7999 14.1336 21.2543 14.7326C20.7793 14.7119 20.3042 14.6913 19.8292 14.6913C19.3541 14.6913 18.879 14.7119 18.4039 14.7326C18.8583 14.1336 19.3335 13.5552 19.8292 13.0182ZM24.4147 17.3558L23.6711 16.1165C24.456 16.2198 25.1996 16.3437 25.9018 16.5089C25.6746 17.1905 25.4267 17.9135 25.1169 18.6364C24.8897 18.2027 24.6625 17.7689 24.4147 17.3558ZM13.1575 14.0096C12.8063 11.8408 13.0955 10.3123 13.9424 9.81662C14.1489 9.69269 14.3968 9.63072 14.6653 9.63072C15.9046 9.63072 17.4538 10.6428 19.003 12.1713C18.28 12.9562 17.557 13.8651 16.8548 14.8565C15.6568 14.9598 14.5207 15.1457 13.4466 15.3729C13.3227 14.8978 13.2401 14.4434 13.1575 14.0096ZM8.05562 19.9997C8.05562 19.0289 9.23297 17.9962 11.2985 17.2319C11.7116 17.0666 12.166 16.922 12.6204 16.7981C12.9509 17.8309 13.364 18.9256 13.8598 20.0204C13.364 21.1151 12.9303 22.1891 12.6204 23.2219C9.77001 22.3957 8.05562 21.1564 8.05562 19.9997ZM13.9424 30.1828C13.0955 29.687 12.8063 28.1586 13.1575 25.9897C13.2194 25.556 13.3227 25.1016 13.4466 24.6264C14.5207 24.8743 15.6568 25.0396 16.8548 25.1429C17.557 26.1343 18.28 27.0225 19.003 27.8281C17.4744 29.3358 15.9253 30.3686 14.6653 30.3686C14.3968 30.3686 14.1489 30.3067 13.9424 30.1828ZM26.5008 25.9897C26.852 28.1586 26.5628 29.687 25.7159 30.1828C25.5093 30.3067 25.2615 30.3686 24.993 30.3686C23.7537 30.3686 22.2045 29.3566 20.6554 27.8281C21.3783 27.0432 22.1013 26.1343 22.8035 25.1429C24.0015 25.0396 25.1375 24.8537 26.2116 24.6264C26.3355 25.1016 26.4182 25.556 26.5008 25.9897ZM28.3598 22.7675C27.9466 22.9327 27.4922 23.0774 27.0378 23.2013C26.7073 22.1685 26.2942 21.0737 25.7985 19.9791C26.2942 18.8843 26.728 17.8102 27.0378 16.7774C29.8882 17.6037 31.6027 18.843 31.6027 19.9997C31.6027 20.9705 30.4047 22.0033 28.3598 22.7675Z" fill="#61DAFB"/>
</g>
<defs>
<clipPath id="clip0_191_2041">
<rect width="26.4387" height="26.4387" fill="white" transform="translate(6.60986 6.78064)"/>
</clipPath>
</defs>
</svg>
