<svg width="40" height="40" viewBox="0 0 40 40" fill="none" xmlns="http://www.w3.org/2000/svg">
<rect width="40" height="40" rx="20" fill="#1D1D1D"/>
<g clip-path="url(#clip0_191_2121)">
<mask id="mask0_191_2121" style="mask-type:luminance" maskUnits="userSpaceOnUse" x="6" y="6" width="28" height="28">
<path d="M33.3332 6.66663H6.6665V33.3333H33.3332V6.66663Z" fill="white"/>
</mask>
<g mask="url(#mask0_191_2121)">
<path d="M16.1457 33.5417C18.6248 33.5417 20.6248 31.5417 20.6248 29.0625V24.5834H16.1457C13.6665 24.5834 11.6665 26.5834 11.6665 29.0625C11.6665 31.5417 13.6665 33.5417 16.1457 33.5417Z" fill="#0ACF83"/>
<path d="M11.6665 20.1042C11.6665 17.625 13.6665 15.625 16.1457 15.625H20.6248V24.5833H16.1457C13.6665 24.5833 11.6665 22.5833 11.6665 20.1042Z" fill="#A259FF"/>
<path d="M11.6665 11.1458C11.6665 8.66663 13.6665 6.66663 16.1457 6.66663H20.6248V15.625H16.1457C13.6665 15.625 11.6665 13.625 11.6665 11.1458Z" fill="#F24E1E"/>
<path d="M20.625 6.66663H25.1042C27.5833 6.66663 29.5833 8.66663 29.5833 11.1458C29.5833 13.625 27.5833 15.625 25.1042 15.625H20.625V6.66663Z" fill="#FF7262"/>
<path d="M29.5833 20.1042C29.5833 22.5833 27.5833 24.5833 25.1042 24.5833C22.625 24.5833 20.625 22.5833 20.625 20.1042C20.625 17.625 22.625 15.625 25.1042 15.625C27.5833 15.625 29.5833 17.625 29.5833 20.1042Z" fill="#1ABCFE"/>
</g>
</g>
<defs>
<clipPath id="clip0_191_2121">
<rect width="26.6667" height="26.6667" fill="white" transform="translate(6.6665 6.66663)"/>
</clipPath>
</defs>
</svg>
