<svg width="44" height="44" viewBox="0 0 44 44" fill="none" xmlns="http://www.w3.org/2000/svg">
<path d="M33.5499 10.4683C33.3803 10.2984 33.1788 10.1636 32.9571 10.0716C32.7353 9.97955 32.4975 9.9322 32.2574 9.9322C32.0173 9.9322 31.7796 9.97955 31.5578 10.0716C31.336 10.1636 31.1345 10.2984 30.9649 10.4683L21.9999 19.415L13.0349 10.45C12.8652 10.2803 12.6637 10.1456 12.4419 10.0538C12.2202 9.96192 11.9825 9.91464 11.7424 9.91464C11.5024 9.91464 11.2647 9.96192 11.0429 10.0538C10.8212 10.1456 10.6197 10.2803 10.4499 10.45C10.2802 10.6197 10.1455 10.8212 10.0537 11.043C9.96183 11.2648 9.91455 11.5025 9.91455 11.7425C9.91455 11.9826 9.96183 12.2202 10.0537 12.442C10.1455 12.6638 10.2802 12.8653 10.4499 13.035L19.4149 22L10.4499 30.965C10.2802 31.1347 10.1455 31.3363 10.0537 31.558C9.96183 31.7798 9.91455 32.0175 9.91455 32.2575C9.91455 32.4976 9.96183 32.7352 10.0537 32.957C10.1455 33.1788 10.2802 33.3803 10.4499 33.55C10.6197 33.7197 10.8212 33.8544 11.0429 33.9462C11.2647 34.0381 11.5024 34.0854 11.7424 34.0854C11.9825 34.0854 12.2202 34.0381 12.4419 33.9462C12.6637 33.8544 12.8652 33.7197 13.0349 33.55L21.9999 24.585L30.9649 33.55C31.1347 33.7197 31.3362 33.8544 31.5579 33.9462C31.7797 34.0381 32.0174 34.0854 32.2574 34.0854C32.4975 34.0854 32.7352 34.0381 32.9569 33.9462C33.1787 33.8544 33.3802 33.7197 33.5499 33.55C33.7197 33.3803 33.8543 33.1788 33.9462 32.957C34.038 32.7352 34.0853 32.4976 34.0853 32.2575C34.0853 32.0175 34.038 31.7798 33.9462 31.558C33.8543 31.3363 33.7197 31.1347 33.5499 30.965L24.5849 22L33.5499 13.035C34.2466 12.3383 34.2466 11.165 33.5499 10.4683Z" fill="black"/>
</svg>
