<svg width="16" height="17" viewBox="0 0 16 17" fill="none" xmlns="http://www.w3.org/2000/svg">
<g clip-path="url(#clip0_146_284)">
<path d="M0 0.5H16V16.5H0V0.5Z" fill="#512BD4"/>
<path d="M2.85171 10.7222C2.73858 10.7222 2.64244 10.6845 2.56327 10.6091C2.4841 10.5318 2.4445 10.44 2.44446 10.3336C2.44446 10.2254 2.48404 10.1326 2.56321 10.0553C2.64242 9.97792 2.73858 9.93925 2.85171 9.93925C2.96671 9.93925 3.06381 9.97792 3.14302 10.0553C3.2241 10.1326 3.26465 10.2254 3.26465 10.3336C3.26465 10.4399 3.2241 10.5318 3.14302 10.6091C3.06385 10.6845 2.96677 10.7222 2.85177 10.7222M7.37433 10.6585H6.63902L4.70158 7.60187C4.65326 7.52584 4.61252 7.44525 4.57996 7.36125H4.56296L4.5659 7.38031L4.56858 7.40219L4.57108 7.42675L4.57346 7.454L4.57652 7.5L4.57915 7.552L4.58133 7.61013L4.58308 7.67438L4.58433 7.74469L4.58496 7.795L4.58558 7.9325V10.6584H3.93508V6.5H4.71852L6.59083 9.48394L6.63708 9.557L6.6669 9.605L6.6924 9.64719L6.71365 9.68363L6.72552 9.70475L6.73552 9.72325L6.74365 9.73919H6.7549L6.75277 9.72606L6.74877 9.69794L6.74502 9.66712L6.74171 9.63356L6.74021 9.61575L6.73733 9.57812L6.73483 9.53781L6.73265 9.49469L6.73002 9.42506L6.72815 9.34931L6.72702 9.26744L6.72665 9.1795V6.5H7.37427L7.37433 10.6585ZM10.5421 10.6585H8.2654V6.5H10.4516V7.08581H8.93852V8.26312H10.3329V8.846H8.93852V10.0756H10.5421V10.6585ZM13.7779 7.08588H12.6125V10.6585H11.9394V7.08588H10.7769V6.5H13.7778L13.7779 7.08588Z" fill="white"/>
</g>
<defs>
<clipPath id="clip0_146_284">
<rect width="16" height="16" fill="white" transform="translate(0 0.5)"/>
</clipPath>
</defs>
</svg>
