<svg width="24" height="24" viewBox="0 0 24 24" fill="none" xmlns="http://www.w3.org/2000/svg">
<g clip-path="url(#clip0_145_54)">
<path d="M3.27637 19.3643L6.23043 0.461687C6.24812 0.34872 6.30086 0.244166 6.38119 0.162793C6.46152 0.0814201 6.56539 0.0273406 6.67812 0.00819314C6.79085 -0.0109543 6.90674 0.00579789 7.00944 0.0560837C7.11213 0.106369 7.19643 0.187647 7.25043 0.288437L10.3056 5.98656L11.5232 3.66794C11.5695 3.57999 11.6389 3.50636 11.724 3.45499C11.8091 3.40362 11.9066 3.37648 12.006 3.37648C12.1054 3.37648 12.2029 3.40362 12.288 3.45499C12.3731 3.50636 12.4425 3.57999 12.4888 3.66794L20.7332 19.3643H3.27637Z" fill="#FFA000"/>
<path d="M13.4818 12.0011L10.3041 5.98389L3.27637 19.3644L13.4818 12.0011Z" fill="#F57C00"/>
<path d="M20.7332 19.3641L18.4706 5.36306C18.4539 5.26437 18.4103 5.17217 18.3447 5.09658C18.2791 5.02098 18.194 4.96488 18.0986 4.93444C18.0033 4.90407 17.9014 4.90049 17.8042 4.9241C17.707 4.94771 17.6181 4.9976 17.5474 5.06831L3.27637 19.3639L11.1729 23.7922C11.4168 23.9284 11.6915 23.9998 11.9707 23.9998C12.25 23.9998 12.5247 23.9284 12.7686 23.7922L20.7332 19.3641Z" fill="#FFCA28"/>
<path d="M18.4707 5.36334C18.4539 5.26465 18.4104 5.17245 18.3448 5.09685C18.2792 5.02125 18.194 4.96516 18.0987 4.93472C18.0033 4.90432 17.9015 4.90072 17.8043 4.9243C17.7071 4.94787 17.6182 4.99773 17.5474 5.0684L14.7148 7.90847L12.4875 3.66797C12.4412 3.58002 12.3718 3.50638 12.2867 3.45502C12.2016 3.40365 12.1041 3.3765 12.0047 3.3765C11.9053 3.3765 11.8078 3.40365 11.7227 3.45502C11.6376 3.50638 11.5682 3.58002 11.5219 3.66797L10.3043 5.9864L7.24916 0.288465C7.19509 0.187536 7.11064 0.106173 7.00777 0.0558991C6.9049 0.00562468 6.78882 -0.0110138 6.67597 0.00833974C6.5632 0.027688 6.45936 0.0820004 6.37914 0.163596C6.29893 0.245191 6.24639 0.34994 6.22897 0.463027L3.27641 19.3643H3.26685L3.27622 19.3752L3.35403 19.4135L17.5433 5.20772C17.614 5.13664 17.703 5.08644 17.8005 5.06264C17.8979 5.03884 18 5.04235 18.0955 5.07279C18.1911 5.10323 18.2764 5.15942 18.3421 5.23519C18.4079 5.31096 18.4514 5.40337 18.468 5.50228L20.7115 19.3778L20.7332 19.3642L18.4707 5.36334ZM3.30228 19.3385L6.23028 0.596715C6.24768 0.483567 6.30023 0.378757 6.38048 0.297122C6.46074 0.215487 6.56464 0.161163 6.67747 0.14184C6.79034 0.122503 6.90644 0.139169 7.00931 0.189478C7.11218 0.239787 7.19662 0.321189 7.25066 0.422152L10.3054 6.12028L11.5232 3.80165C11.5695 3.7137 11.639 3.64007 11.724 3.58871C11.8091 3.53734 11.9066 3.51019 12.006 3.51019C12.1054 3.51019 12.2029 3.53734 12.288 3.58871C12.3731 3.64007 12.4425 3.7137 12.4888 3.80165L14.671 7.95197L3.30191 19.3385H3.30228Z" fill="white" fill-opacity="0.2"/>
<path opacity="0.2" d="M12.7684 23.6587C12.5246 23.7948 12.2499 23.8663 11.9706 23.8663C11.6913 23.8663 11.4167 23.7948 11.1728 23.6587L3.295 19.2431L3.27588 19.3644L11.1724 23.7913C11.4163 23.9274 11.691 23.9989 11.9703 23.9989C12.2495 23.9989 12.5242 23.9274 12.7681 23.7913L20.7331 19.3644L20.7124 19.2388L12.7681 23.6591L12.7684 23.6587Z" fill="#A52714"/>
</g>
<defs>
<clipPath id="clip0_145_54">
<rect width="24" height="24" fill="white"/>
</clipPath>
</defs>
</svg>
