<svg width="21" height="21" viewBox="0 0 21 21" fill="none" xmlns="http://www.w3.org/2000/svg">
<path d="M8.64409 1.85597L7.73059 2.76947L8.98402 4.0229L10.2965 5.3354C10.5955 5.18752 10.9272 5.11839 11.2603 5.13454C11.5934 5.1507 11.9169 5.25161 12.2001 5.42772C12.4834 5.60383 12.717 5.84931 12.8788 6.14093C13.0406 6.43254 13.1254 6.76064 13.125 7.09415C13.1179 7.39178 13.0486 7.68462 12.9215 7.95384L14.2734 9.26634C14.6279 9.06151 15.0428 8.98679 15.4465 9.05507C15.8503 9.12336 16.2175 9.33037 16.485 9.6404C16.6718 9.81962 16.8196 10.0356 16.919 10.2746C17.0184 10.5137 17.0672 10.7708 17.0625 11.0297C17.0629 11.5466 16.8613 12.0433 16.5007 12.4137C16.3193 12.6032 16.1006 12.7531 15.8585 12.8541C15.6164 12.9551 15.356 13.0049 15.0937 13.0004C14.8343 13.0045 14.5766 12.956 14.3364 12.8579C14.0962 12.7598 13.8783 12.614 13.6959 12.4295C13.3868 12.1598 13.1812 11.791 13.1141 11.3863C13.0471 10.9817 13.1228 10.5663 13.3284 10.2113L12.0159 8.85947C11.9496 8.88946 11.8817 8.91575 11.8125 8.93822V13.1251C12.1935 13.2608 12.5234 13.5106 12.7575 13.8404C12.9964 14.1683 13.125 14.5635 13.125 14.9692C13.1301 15.229 13.0816 15.4872 12.9825 15.7275C12.8833 15.9678 12.7357 16.185 12.5488 16.3657C12.1914 16.7226 11.7098 16.9274 11.2048 16.9372C10.8399 16.9487 10.479 16.8577 10.1631 16.6747C9.84718 16.4917 9.58877 16.224 9.41711 15.9017C9.24545 15.5795 9.16738 15.2157 9.19174 14.8514C9.2161 14.4871 9.34192 14.1369 9.55496 13.8404C9.78901 13.5106 10.119 13.2608 10.5 13.1251V8.93822C10.1181 8.80405 9.78775 8.55396 9.55496 8.2229C9.31525 7.89546 9.18649 7.49996 9.18746 7.09415C9.1869 6.7956 9.25659 6.50111 9.3909 6.23447L6.83152 3.67509L1.85781 8.64422C1.6139 8.88794 1.42039 9.17733 1.28835 9.49586C1.15631 9.81438 1.08832 10.1558 1.08826 10.5006C1.0882 10.8454 1.15607 11.1869 1.288 11.5054C1.41993 11.824 1.61333 12.1135 1.85715 12.3573L8.64409 19.1442C9.13635 19.6363 9.80391 19.9128 10.5 19.9128C11.196 19.9128 11.8636 19.6363 12.3558 19.1442L19.1441 12.356C19.6362 11.8637 19.9127 11.1961 19.9127 10.5001C19.9127 9.80404 19.6362 9.13648 19.1441 8.64422L12.3558 1.85597C11.8636 1.36386 11.196 1.0874 10.5 1.0874C9.80391 1.0874 9.13635 1.36386 8.64409 1.85597Z" fill="#E64A19"/>
</svg>
