<svg width="16" height="16" viewBox="0 0 16 16" fill="none" xmlns="http://www.w3.org/2000/svg">
<path d="M5.99967 12.6667C2.66634 13.6667 2.66634 11 1.33301 10.6667M10.6663 14.6667V12.0867C10.6913 11.7688 10.6484 11.4492 10.5404 11.1492C10.4323 10.8492 10.2616 10.5756 10.0397 10.3467C12.133 10.1133 14.333 9.32 14.333 5.68C14.3328 4.74922 13.9748 3.85413 13.333 3.18C13.6369 2.36567 13.6154 1.46557 13.273 0.666666C13.273 0.666666 12.4863 0.433332 10.6663 1.65333C9.13835 1.23921 7.52767 1.23921 5.99967 1.65333C4.17967 0.433332 3.39301 0.666666 3.39301 0.666666C3.05059 1.46557 3.0291 2.36567 3.33301 3.18C2.68643 3.85913 2.32802 4.76231 2.33301 5.7C2.33301 9.31333 4.53301 10.1067 6.62634 10.3667C6.40701 10.5933 6.23785 10.8636 6.12988 11.1599C6.02191 11.4563 5.97755 11.772 5.99967 12.0867V14.6667" stroke="black" stroke-width="1.2" stroke-linecap="round" stroke-linejoin="round"/>
</svg>
