<svg width="16" height="17" viewBox="0 0 16 17" fill="none" xmlns="http://www.w3.org/2000/svg">
<path d="M11.333 1.83334H4.66634C2.82539 1.83334 1.33301 3.32573 1.33301 5.16668V11.8333C1.33301 13.6743 2.82539 15.1667 4.66634 15.1667H11.333C13.174 15.1667 14.6663 13.6743 14.6663 11.8333V5.16668C14.6663 3.32573 13.174 1.83334 11.333 1.83334Z" stroke="#3B3C3F" stroke-width="1.2" stroke-linecap="round" stroke-linejoin="round"/>
<path d="M10.6668 8.07999C10.7491 8.63482 10.6543 9.20146 10.396 9.69933C10.1376 10.1972 9.72889 10.6009 9.22788 10.8531C8.72687 11.1053 8.1591 11.1931 7.60532 11.1039C7.05155 11.0148 6.53997 10.7534 6.14336 10.3568C5.74674 9.96015 5.48528 9.44857 5.39618 8.8948C5.30707 8.34102 5.39484 7.77325 5.64701 7.27224C5.89919 6.77122 6.30292 6.36248 6.80079 6.10415C7.29865 5.84582 7.8653 5.75105 8.42013 5.83332C8.98608 5.91724 9.51003 6.18096 9.91459 6.58553C10.3192 6.99009 10.5829 7.51404 10.6668 8.07999Z" stroke="#3B3C3F" stroke-width="1.2" stroke-linecap="round" stroke-linejoin="round"/>
<path d="M11.667 4.83334H11.6737" stroke="#3B3C3F" stroke-width="1.2" stroke-linecap="round" stroke-linejoin="round"/>
</svg>
