<svg width="16" height="17" viewBox="0 0 16 17" fill="none" xmlns="http://www.w3.org/2000/svg">
<path d="M10.667 5.83334C11.7279 5.83334 12.7453 6.25477 13.4954 7.00492C14.2456 7.75506 14.667 8.77248 14.667 9.83334V14.5H12.0003V9.83334C12.0003 9.47972 11.8598 9.14058 11.6098 8.89053C11.3598 8.64049 11.0206 8.50001 10.667 8.50001C10.3134 8.50001 9.97423 8.64049 9.72418 8.89053C9.47413 9.14058 9.33366 9.47972 9.33366 9.83334V14.5H6.66699V9.83334C6.66699 8.77248 7.08842 7.75506 7.83857 7.00492C8.58871 6.25477 9.60613 5.83334 10.667 5.83334Z" stroke="#3B3C3F" stroke-width="1.2" stroke-linecap="round" stroke-linejoin="round"/>
<path d="M3.99967 6.5H1.33301V14.5H3.99967V6.5Z" stroke="#3B3C3F" stroke-width="1.2" stroke-linecap="round" stroke-linejoin="round"/>
<path d="M2.66634 4.50001C3.40272 4.50001 3.99967 3.90306 3.99967 3.16668C3.99967 2.4303 3.40272 1.83334 2.66634 1.83334C1.92996 1.83334 1.33301 2.4303 1.33301 3.16668C1.33301 3.90306 1.92996 4.50001 2.66634 4.50001Z" stroke="#3B3C3F" stroke-width="1.2" stroke-linecap="round" stroke-linejoin="round"/>
</svg>
