<svg width="16" height="17" viewBox="0 0 16 17" fill="none" xmlns="http://www.w3.org/2000/svg">
<path d="M14 8.16666C14.0023 9.04657 13.7967 9.91458 13.4 10.7C12.9296 11.6412 12.2065 12.4328 11.3116 12.9862C10.4168 13.5396 9.3855 13.8329 8.33333 13.8333C7.45342 13.8356 6.58541 13.63 5.8 13.2333L2 14.5L3.26667 10.7C2.86995 9.91458 2.66437 9.04657 2.66667 8.16666C2.66707 7.11449 2.96041 6.08322 3.51381 5.18836C4.06722 4.29349 4.85884 3.57037 5.8 3.09999C6.58541 2.70328 7.45342 2.49769 8.33333 2.49999H8.66667C10.0562 2.57665 11.3687 3.16316 12.3528 4.14723C13.3368 5.13129 13.9233 6.44376 14 7.83332V8.16666Z" stroke="#3B3C3F" stroke-width="1.2" stroke-linecap="round" stroke-linejoin="round"/>
</svg>
