<svg width="21" height="21" viewBox="0 0 21 21" fill="none" xmlns="http://www.w3.org/2000/svg">
<path d="M0 14.9809H0.695953V12.2334L1.77319 14.6284C1.90001 14.9188 2.07375 15.0206 2.41533 15.0206C2.75691 15.0206 2.92359 14.9188 3.05041 14.6284L4.12765 12.2334V14.9808H4.8236V12.238C4.8236 11.9701 4.71663 11.8406 4.49548 11.774C3.9667 11.6093 3.61233 11.7515 3.45155 12.1085L2.39482 14.4727L1.3714 12.1085C1.21767 11.7515 0.856242 11.6093 0.328125 11.774C0.106969 11.8406 0 11.9701 0 12.238L0 14.9809ZM5.40258 12.7443H6.09787V14.2581C6.09148 14.3401 6.12413 14.533 6.50541 14.5394H8.01855V12.7366H8.71582C8.7191 12.7366 8.71451 15.1949 8.71451 15.2052C8.71828 15.8114 7.96277 15.9428 7.61414 15.9532H5.41734V15.4853L7.61808 15.4846C8.06597 15.4378 8.01281 15.2147 8.01281 15.1404V14.9578H6.53428C5.84604 14.9514 5.40832 14.6508 5.40258 14.3053C5.40192 14.274 5.41734 12.7597 5.40258 12.7443Z" fill="#00618A"/>
<path d="M9.25171 14.9811H11.2525C11.4864 14.9811 11.714 14.9317 11.8946 14.8472C12.1958 14.7094 12.3425 14.5217 12.3425 14.2762V13.768C12.3425 13.5673 12.1758 13.3796 11.8477 13.2553C11.6739 13.188 11.4593 13.1527 11.2523 13.1527H10.4088C10.1281 13.1527 9.99426 13.0681 9.96095 12.8811C9.95455 12.8586 9.95455 12.8407 9.95455 12.8182V12.5016C9.95455 12.4837 9.95455 12.4656 9.96095 12.4433C9.99426 12.3011 10.0679 12.2607 10.3153 12.2383L10.3826 12.2338H12.3692V11.7705H10.4161C10.1353 11.7705 9.98802 11.7884 9.85398 11.8283C9.4394 11.9577 9.2586 12.1628 9.2586 12.5198V12.9255C9.2586 13.2376 9.61297 13.5055 10.2084 13.5677L10.409 13.5767H11.1319C11.1588 13.5767 11.185 13.5767 11.2055 13.5811C11.426 13.599 11.5195 13.6394 11.5868 13.7196C11.6214 13.7516 11.6413 13.7972 11.64 13.8439V14.2503C11.64 14.299 11.6067 14.3619 11.5401 14.415C11.4798 14.4689 11.3793 14.5041 11.2459 14.5131L11.1722 14.5176H9.25171V14.9811ZM16.6832 14.1735C16.6832 14.651 17.0383 14.9182 17.7534 14.972L17.9547 14.9811H19.7678V14.5171H17.9413C17.5331 14.5171 17.3792 14.4145 17.3792 14.1691V11.7695H16.6839V14.1734L16.6832 14.1735ZM12.7868 14.1978V12.5437C12.7868 12.1239 13.0822 11.869 13.6653 11.7887C13.7275 11.7798 13.7903 11.7753 13.8532 11.7753H15.1734C15.2406 11.7753 15.3009 11.7797 15.3683 11.7887C15.9515 11.8688 16.2464 12.1239 16.2464 12.5437V14.1978C16.2464 14.5387 16.1213 14.7209 15.8324 14.84L16.5182 15.4585H15.71L15.1557 14.9579L14.5975 14.9932H13.8535C13.7152 14.9928 13.5776 14.9733 13.4447 14.9354C13.0018 14.815 12.7871 14.5824 12.7871 14.1978H12.7868ZM13.5378 14.1575C13.5378 14.1799 13.5442 14.2023 13.5513 14.2293C13.5917 14.4216 13.7725 14.5286 14.0473 14.5286H14.6792L14.0986 14.0044H14.9068L15.4131 14.462C15.5066 14.4119 15.5675 14.3363 15.5893 14.2383C15.5957 14.2159 15.5957 14.1936 15.5957 14.1711V12.5849C15.5957 12.567 15.5957 12.5446 15.5893 12.5221C15.5489 12.3433 15.3681 12.2407 15.0997 12.2407H14.0474C13.7391 12.2407 13.538 12.3746 13.538 12.5849L13.5378 14.1575Z" fill="#E48E00"/>
<path d="M20.3797 10.9998C19.9524 10.9883 19.6254 11.028 19.346 11.146C19.2666 11.1793 19.1396 11.1799 19.1268 11.2794C19.1704 11.3255 19.1775 11.394 19.2121 11.4498C19.2787 11.5581 19.3916 11.7023 19.4922 11.7779L19.8324 12.0214C20.0413 12.1489 20.2752 12.2221 20.4772 12.3495C20.5958 12.4252 20.7136 12.52 20.8296 12.6053C20.8867 12.647 20.9251 12.7129 21.0001 12.7392V12.727C20.961 12.677 20.9507 12.6084 20.9147 12.5566L20.7564 12.3983C20.602 12.1932 20.4058 12.013 20.197 11.8631C20.0303 11.7438 19.6587 11.5824 19.5888 11.3888L19.5766 11.3766C19.6946 11.3638 19.8331 11.3209 19.9414 11.292C20.1246 11.2426 20.288 11.2554 20.4765 11.2067L20.7323 11.133V11.0849C20.6368 10.9868 20.5689 10.8574 20.4644 10.7683C20.1927 10.537 19.8953 10.305 19.589 10.1114C19.4191 10.0044 19.2096 9.93519 19.0295 9.84413C18.9693 9.81345 18.8628 9.79803 18.8225 9.74668C18.7283 9.62626 18.6769 9.47368 18.6039 9.33324L18.1662 8.40908C18.074 8.19826 18.0136 7.9899 17.8983 7.8009C17.3465 6.89281 16.7518 6.34485 15.8308 5.80656C15.6354 5.69188 15.3988 5.64692 15.1502 5.58802L14.7485 5.56374C14.6671 5.52913 14.5824 5.42921 14.5056 5.38114C14.2006 5.1882 13.4181 4.76919 13.1918 5.32027C13.0496 5.66825 13.4053 6.00786 13.5327 6.18423C13.6218 6.30793 13.7365 6.4464 13.8 6.58536C13.8423 6.67641 13.8494 6.76796 13.8853 6.86476C13.9738 7.10314 14.0507 7.36203 14.1654 7.58253C14.2231 7.69409 14.2865 7.8114 14.3596 7.91066C14.4044 7.97152 14.4814 7.99909 14.4935 8.09326C14.4185 8.19842 14.4141 8.36117 14.3718 8.49439C14.1815 9.09355 14.2531 9.83823 14.5301 10.2823C14.6147 10.4182 14.8146 10.7104 15.0895 10.5983C15.3299 10.5002 15.2761 10.1972 15.3447 9.92928C15.3607 9.86907 15.3511 9.82412 15.3812 9.78376V9.7959L15.6004 10.2336C15.7625 10.4945 16.0496 10.7668 16.2933 10.9507C16.4201 11.0462 16.5195 11.2116 16.6829 11.2674V11.2546H16.6708C16.6388 11.2059 16.5894 11.1853 16.549 11.1456C16.4536 11.0521 16.3477 10.9361 16.2696 10.829C16.0478 10.5284 15.8518 10.199 15.6736 9.85611C15.5883 9.6927 15.514 9.51191 15.4423 9.34538C15.4147 9.28124 15.4154 9.18395 15.3576 9.15113C15.2789 9.27287 15.1629 9.37163 15.1018 9.51584C15.0044 9.74586 14.9922 10.0272 14.9557 10.3183L14.9314 10.3304C14.7622 10.2894 14.7025 10.1152 14.6398 9.9657C14.4802 9.58754 14.4508 8.97805 14.5911 8.54295C14.627 8.43024 14.7911 8.07505 14.7245 7.97136C14.6932 7.86751 14.5887 7.8073 14.5302 7.72789C14.4539 7.62141 14.3886 7.5074 14.3355 7.38763C14.2054 7.09215 14.1445 6.76156 14.0074 6.46346C13.9421 6.32056 13.8312 6.17635 13.7401 6.04953C13.6389 5.90926 13.526 5.80606 13.4479 5.63609C13.4204 5.57588 13.3826 5.47909 13.4236 5.41691C13.4364 5.37524 13.4556 5.35801 13.4967 5.34456C13.5672 5.29009 13.7639 5.36244 13.8369 5.39263C14.0323 5.474 14.1952 5.55095 14.3604 5.66054C14.4392 5.71304 14.5194 5.81492 14.6156 5.84314H14.7252C14.8963 5.88219 15.0879 5.85463 15.2482 5.90335C15.5309 5.98916 15.7847 6.1232 16.014 6.26872C16.7151 6.71087 17.2881 7.34087 17.6802 8.0926C17.7437 8.21368 17.7706 8.32902 17.8264 8.45731C17.9386 8.7162 18.0796 8.98281 18.1911 9.23595C18.3027 9.4891 18.411 9.74356 18.568 9.95373C18.6507 10.064 18.9704 10.1229 19.1153 10.1844C19.2172 10.2274 19.3839 10.2722 19.48 10.3306C19.6646 10.4415 19.8428 10.5734 20.0158 10.6953C20.1016 10.7568 20.3671 10.8902 20.3806 10.9996L20.3797 10.9998ZM14.9432 6.36634C14.8696 6.36515 14.7962 6.37331 14.7247 6.39062V6.40276H14.7368C14.7791 6.49053 14.8541 6.54697 14.9066 6.62195L15.0283 6.87706L15.0405 6.86558C15.1161 6.81242 15.1501 6.72711 15.1501 6.59767C15.1194 6.56567 15.1155 6.52597 15.0892 6.48807C15.0546 6.43738 14.9875 6.40932 14.9432 6.36634Z" fill="#00618A"/>
</svg>
