<svg width="16" height="16" viewBox="0 0 16 16" fill="none" xmlns="http://www.w3.org/2000/svg">
<path d="M12 10V6C12 4.11438 12 3.17157 11.4142 2.58579C10.8284 2 9.88558 2 7.99998 2H5.33331C3.44769 2 2.50489 2 1.9191 2.58579C1.33331 3.17157 1.33331 4.11438 1.33331 6V10C1.33331 11.8856 1.33331 12.8284 1.9191 13.4142C2.50489 14 3.44769 14 5.33331 14H13.3333" stroke="black" stroke-width="1.2" stroke-linecap="round" stroke-linejoin="round"/>
<path d="M4 5.33334H9.33333" stroke="black" stroke-width="1.2" stroke-linecap="round" stroke-linejoin="round"/>
<path d="M4 8H9.33333" stroke="black" stroke-width="1.2" stroke-linecap="round" stroke-linejoin="round"/>
<path d="M4 10.6667H6.66667" stroke="black" stroke-width="1.2" stroke-linecap="round" stroke-linejoin="round"/>
<path d="M12 5.33334H12.6667C13.6095 5.33334 14.0809 5.33334 14.3738 5.62624C14.6667 5.91913 14.6667 6.39054 14.6667 7.33334V12.6667C14.6667 13.4031 14.0697 14 13.3333 14C12.5969 14 12 13.4031 12 12.6667V5.33334Z" stroke="black" stroke-width="1.2" stroke-linecap="round" stroke-linejoin="round"/>
</svg>
