<svg width="21" height="21" viewBox="0 0 21 21" fill="none" xmlns="http://www.w3.org/2000/svg">
<path d="M11.6701 1.38735C9.25324 1.07702 6.81211 1.73949 4.88371 3.22901C2.95532 4.71854 1.69762 6.91311 1.38729 9.32994C1.07696 11.7468 1.73943 14.1879 3.22895 16.1163C4.71848 18.0447 6.91305 19.3024 9.32988 19.6127C11.7467 19.9231 14.1878 19.2606 16.1162 17.7711C18.0446 16.2815 19.3023 14.087 19.6127 11.6701C19.923 9.2533 19.2605 6.81217 17.771 4.88378C16.2815 2.95538 14.0869 1.69768 11.6701 1.38735Z" fill="#FF6C37"/>
<path d="M7.95445 11.0809C7.95766 11.0885 7.96364 11.0946 7.97118 11.098C7.97873 11.1014 7.98728 11.1019 7.99513 11.0992L9.46513 10.7823L8.84629 10.1555L7.9656 11.0369C7.95844 11.0414 7.95328 11.0484 7.9512 11.0566C7.94912 11.0648 7.95029 11.0735 7.95445 11.0809ZM14.8379 4.76904C14.6331 4.76938 14.431 4.81564 14.2465 4.9044C14.0619 4.99316 13.8996 5.12217 13.7716 5.28193C13.6435 5.4417 13.5528 5.62815 13.5063 5.82757C13.4598 6.02699 13.4586 6.2343 13.5028 6.43425C13.547 6.63419 13.6355 6.82168 13.7617 6.98292C13.8879 7.14416 14.0487 7.27504 14.2322 7.36593C14.4157 7.45681 14.6173 7.5054 14.822 7.50811C15.0268 7.51082 15.2295 7.46758 15.4154 7.38158L14.4835 6.4497C14.462 6.42818 14.45 6.39903 14.45 6.36865C14.45 6.33827 14.462 6.30913 14.4835 6.28761L15.7008 5.07092C15.4559 4.87503 15.1515 4.76854 14.8379 4.76904Z" fill="white"/>
<path d="M15.8681 5.229L14.7269 6.36563L15.622 7.26075C15.7797 7.1497 15.9123 7.00679 16.0112 6.84128C16.1102 6.67577 16.1733 6.49133 16.1965 6.2999C16.2197 6.10846 16.2024 5.91429 16.1459 5.72994C16.0893 5.54558 15.9947 5.3745 15.8681 5.229ZM13.585 7.32638H13.5654C13.5414 7.32638 13.5174 7.32858 13.4938 7.33294H13.4859C13.4604 7.33865 13.4352 7.34588 13.4105 7.3546L13.3908 7.36379C13.3729 7.37218 13.3554 7.38137 13.3383 7.39135L13.318 7.40447C13.2959 7.42022 13.2749 7.43731 13.255 7.45566L9.87133 10.8406L10.2907 11.2593L13.8738 8.11454C13.8941 8.09679 13.9126 8.077 13.9289 8.05547L13.944 8.03579C13.9715 7.99419 13.9929 7.94889 14.0077 7.90125C14.0077 7.89075 14.0142 7.8796 14.0169 7.86844C14.0211 7.84565 14.0242 7.82265 14.026 7.79954V7.71947C14.026 7.70307 14.026 7.69782 14.0214 7.68666C14.0045 7.6 13.9622 7.52032 13.8999 7.45771C13.8377 7.39509 13.7582 7.35236 13.6717 7.33491H13.654C13.6311 7.33085 13.6081 7.328 13.585 7.32638ZM9.00508 9.99272L9.69939 10.6838L13.0922 7.29094C13.2031 7.18266 13.3468 7.11572 13.5004 7.10063C12.9006 6.64125 12.247 6.76135 9.00508 9.99272ZM14.0648 8.2471L14.0234 8.28779L10.4403 11.4312L11.0493 12.0396C12.56 10.6109 13.9 9.2505 14.0648 8.2471ZM5.12664 15.6128C5.12852 15.6194 5.13237 15.6251 5.13766 15.6293C5.14294 15.6336 5.14941 15.6361 5.15617 15.6365L6.71804 15.7441L5.84261 14.8687L5.13386 15.5761C5.12916 15.5808 5.12601 15.5869 5.12484 15.5934C5.12367 15.6 5.12452 15.6068 5.12729 15.6128H5.12664ZM6.00601 14.7059L6.92936 15.6293C6.94056 15.6406 6.9552 15.6479 6.97099 15.65C6.98677 15.6521 7.00283 15.649 7.01664 15.6411C7.03103 15.634 7.0425 15.6221 7.04909 15.6075C7.05568 15.5929 7.05697 15.5765 7.05273 15.561L6.8972 14.8982C6.8868 14.8551 6.89124 14.8097 6.90982 14.7695C6.9284 14.7292 6.96003 14.6964 6.99958 14.6764C8.61789 13.8653 9.92383 13.0298 10.882 12.1958L10.2388 11.5526L8.8607 11.8493L6.00601 14.7059ZM10.0413 11.3584L9.69611 11.0132L9.21836 11.4896C9.21488 11.4938 9.21298 11.499 9.21298 11.5044C9.21298 11.5098 9.21488 11.515 9.21836 11.5192C9.22063 11.5239 9.22452 11.5277 9.22932 11.5299C9.23413 11.532 9.23954 11.5324 9.24461 11.531L10.0413 11.3584Z" fill="white"/>
<path d="M15.9003 5.96983C15.8958 5.95503 15.8882 5.94138 15.8779 5.92982C15.8677 5.91825 15.855 5.90904 15.8409 5.90283C15.8267 5.89661 15.8114 5.89354 15.796 5.89382C15.7805 5.89409 15.7653 5.89772 15.7514 5.90444C15.7375 5.91116 15.7252 5.92081 15.7153 5.93274C15.7055 5.94467 15.6984 5.95858 15.6944 5.97353C15.6905 5.98848 15.6899 6.0041 15.6925 6.01932C15.6952 6.03454 15.7012 6.049 15.71 6.0617C15.7371 6.11697 15.7479 6.17888 15.7409 6.24007C15.7339 6.30126 15.7095 6.35917 15.6706 6.40689C15.6526 6.42865 15.6439 6.45667 15.6466 6.48479C15.6492 6.51291 15.6629 6.53883 15.6847 6.55684C15.7065 6.57486 15.7345 6.58349 15.7626 6.58085C15.7907 6.5782 15.8166 6.56449 15.8347 6.54273C15.8995 6.46368 15.9403 6.36757 15.9519 6.26595C15.9635 6.16433 15.9456 6.06151 15.9003 5.96983Z" fill="#FF6C37"/>
</svg>
