<svg width="78" height="25" viewBox="0 0 78 25" fill="none" xmlns="http://www.w3.org/2000/svg">
<rect x="0.00292969" y="0.0273438" width="24" height="24" rx="4.36364" fill="black"/>
<path d="M12.2541 6.30579H14.5537V14.5992C14.5537 15.5083 14.3388 16.3079 13.9091 16.9979C13.4835 17.688 12.8843 18.2273 12.1116 18.6157C11.3388 19 10.436 19.1921 9.40289 19.1921C8.3657 19.1921 7.46074 19 6.68802 18.6157C5.91529 18.2273 5.31612 17.688 4.8905 16.9979C4.46488 16.3079 4.25207 15.5083 4.25207 14.5992V6.30579H6.55165V14.407C6.55165 14.936 6.66736 15.407 6.89876 15.8202C7.1343 16.2335 7.46488 16.5579 7.8905 16.7934C8.31612 17.0248 8.82025 17.1405 9.40289 17.1405C9.98554 17.1405 10.4897 17.0248 10.9153 16.7934C11.345 16.5579 11.6756 16.2335 11.907 15.8202C12.1384 15.407 12.2541 14.936 12.2541 14.407V6.30579ZM18.6546 6.30579V19H16.355V6.30579H18.6546Z" fill="white"/>
<path d="M38.9409 9.96123H37.0071C36.9327 9.54801 36.7943 9.18437 36.5918 8.87032C36.3893 8.55627 36.1414 8.28974 35.848 8.07073C35.5546 7.85172 35.2261 7.68644 34.8624 7.57486C34.5029 7.46329 34.1207 7.40751 33.7157 7.40751C32.9843 7.40751 32.3294 7.59139 31.7509 7.95916C31.1765 8.32693 30.7219 8.86619 30.3872 9.57693C30.0566 10.2877 29.8914 11.1554 29.8914 12.1802C29.8914 13.2133 30.0566 14.0852 30.3872 14.7959C30.7219 15.5067 31.1785 16.0439 31.7571 16.4075C32.3356 16.7711 32.9864 16.953 33.7095 16.953C34.1104 16.953 34.4905 16.8992 34.85 16.7918C35.2137 16.6802 35.5422 16.517 35.8356 16.3021C36.129 16.0873 36.3769 15.8249 36.5794 15.5149C36.786 15.2009 36.9285 14.8414 37.0071 14.4364L38.9409 14.4426C38.8376 15.0666 38.6372 15.641 38.3397 16.1658C38.0463 16.6864 37.6682 17.1368 37.2054 17.517C36.7467 17.893 36.2219 18.1844 35.631 18.391C35.0401 18.5976 34.3955 18.7009 33.6971 18.7009C32.598 18.7009 31.6186 18.4406 30.7591 17.9199C29.8996 17.3951 29.2219 16.6451 28.7261 15.6699C28.2343 14.6947 27.9885 13.5315 27.9885 12.1802C27.9885 10.8249 28.2364 9.66164 28.7323 8.69057C29.2281 7.71536 29.9058 6.96743 30.7653 6.44677C31.6248 5.92197 32.6021 5.65958 33.6971 5.65958C34.3707 5.65958 34.9988 5.75668 35.5814 5.9509C36.1682 6.14098 36.6951 6.42197 37.162 6.79387C37.629 7.16164 38.0153 7.61206 38.3211 8.14511C38.6269 8.67404 38.8335 9.27941 38.9409 9.96123ZM44.3962 18.7195C43.5036 18.7195 42.7247 18.5149 42.0594 18.1059C41.3941 17.6968 40.8776 17.1245 40.5098 16.3889C40.142 15.6534 39.9582 14.7939 39.9582 13.8104C39.9582 12.8228 40.142 11.9592 40.5098 11.2195C40.8776 10.4798 41.3941 9.90544 42.0594 9.49635C42.7247 9.08726 43.5036 8.88272 44.3962 8.88272C45.2887 8.88272 46.0677 9.08726 46.7329 9.49635C47.3982 9.90544 47.9148 10.4798 48.2825 11.2195C48.6503 11.9592 48.8342 12.8228 48.8342 13.8104C48.8342 14.7939 48.6503 15.6534 48.2825 16.3889C47.9148 17.1245 47.3982 17.6968 46.7329 18.1059C46.0677 18.5149 45.2887 18.7195 44.3962 18.7195ZM44.4024 17.1637C44.9809 17.1637 45.4602 17.0108 45.8404 16.705C46.2206 16.3992 46.5015 15.9922 46.6834 15.484C46.8693 14.9757 46.9623 14.4158 46.9623 13.8042C46.9623 13.1968 46.8693 12.6389 46.6834 12.1306C46.5015 11.6183 46.2206 11.2071 45.8404 10.8972C45.4602 10.5873 44.9809 10.4323 44.4024 10.4323C43.8197 10.4323 43.3363 10.5873 42.952 10.8972C42.5718 11.2071 42.2887 11.6183 42.1028 12.1306C41.921 12.6389 41.8301 13.1968 41.8301 13.8042C41.8301 14.4158 41.921 14.9757 42.1028 15.484C42.2887 15.9922 42.5718 16.3992 42.952 16.705C43.3363 17.0108 43.8197 17.1637 44.4024 17.1637ZM52.058 5.83313V18.5273H50.2047V5.83313H52.058ZM57.8634 18.7195C56.9709 18.7195 56.192 18.5149 55.5267 18.1059C54.8614 17.6968 54.3448 17.1245 53.9771 16.3889C53.6093 15.6534 53.4254 14.7939 53.4254 13.8104C53.4254 12.8228 53.6093 11.9592 53.9771 11.2195C54.3448 10.4798 54.8614 9.90544 55.5267 9.49635C56.192 9.08726 56.9709 8.88272 57.8634 8.88272C58.756 8.88272 59.5349 9.08726 60.2002 9.49635C60.8655 9.90544 61.382 10.4798 61.7498 11.2195C62.1176 11.9592 62.3015 12.8228 62.3015 13.8104C62.3015 14.7939 62.1176 15.6534 61.7498 16.3889C61.382 17.1245 60.8655 17.6968 60.2002 18.1059C59.5349 18.5149 58.756 18.7195 57.8634 18.7195ZM57.8696 17.1637C58.4482 17.1637 58.9275 17.0108 59.3077 16.705C59.6878 16.3992 59.9688 15.9922 60.1506 15.484C60.3366 14.9757 60.4296 14.4158 60.4296 13.8042C60.4296 13.1968 60.3366 12.6389 60.1506 12.1306C59.9688 11.6183 59.6878 11.2071 59.3077 10.8972C58.9275 10.5873 58.4482 10.4323 57.8696 10.4323C57.287 10.4323 56.8035 10.5873 56.4192 10.8972C56.0391 11.2071 55.756 11.6183 55.5701 12.1306C55.3882 12.6389 55.2973 13.1968 55.2973 13.8042C55.2973 14.4158 55.3882 14.9757 55.5701 15.484C55.756 15.9922 56.0391 16.3992 56.4192 16.705C56.8035 17.0108 57.287 17.1637 57.8696 17.1637ZM63.672 18.5273V9.00668H65.4633V10.5191H65.5625C65.736 10.0067 66.0418 9.60379 66.4798 9.3104C66.922 9.01288 67.422 8.86412 67.9798 8.86412C68.0955 8.86412 68.2319 8.86825 68.3889 8.87652C68.5501 8.88478 68.6761 8.89511 68.767 8.90751V10.6802C68.6926 10.6596 68.5604 10.6368 68.3703 10.6121C68.1802 10.5831 67.9902 10.5687 67.8001 10.5687C67.3621 10.5687 66.9716 10.6616 66.6286 10.8476C66.2897 11.0294 66.0212 11.2835 65.8228 11.61C65.6245 11.9323 65.5253 12.3001 65.5253 12.7133V18.5273H63.672ZM76.807 11.3311L75.1272 11.6286C75.057 11.4137 74.9454 11.2092 74.7925 11.0149C74.6437 10.8207 74.4413 10.6616 74.1851 10.5377C73.9289 10.4137 73.6086 10.3517 73.2243 10.3517C72.6995 10.3517 72.2615 10.4695 71.9103 10.705C71.559 10.9364 71.3834 11.236 71.3834 11.6038C71.3834 11.922 71.5012 12.1782 71.7367 12.3724C71.9722 12.5666 72.3524 12.7257 72.8772 12.8497L74.3896 13.1968C75.2656 13.3992 75.9185 13.7112 76.3483 14.1327C76.778 14.5542 76.9929 15.1017 76.9929 15.7753C76.9929 16.3455 76.8276 16.8538 76.497 17.3001C76.1706 17.7422 75.714 18.0893 75.1272 18.3414C74.5446 18.5935 73.8689 18.7195 73.1003 18.7195C72.0342 18.7195 71.1644 18.4922 70.4908 18.0377C69.8173 17.579 69.4041 16.9282 69.2512 16.0852L71.0425 15.8125C71.1541 16.2794 71.3834 16.6327 71.7305 16.8724C72.0776 17.1079 72.5301 17.2257 73.0879 17.2257C73.6954 17.2257 74.1809 17.0997 74.5446 16.8476C74.9082 16.5914 75.09 16.2794 75.09 15.9116C75.09 15.6141 74.9784 15.3641 74.7553 15.1616C74.5363 14.9592 74.1995 14.8063 73.745 14.703L72.1334 14.3497C71.245 14.1472 70.5879 13.8249 70.1623 13.3827C69.7408 12.9406 69.5301 12.3806 69.5301 11.703C69.5301 11.141 69.6871 10.6492 70.0012 10.2278C70.3152 9.80627 70.7491 9.47776 71.3028 9.24222C71.8565 9.00255 72.4908 8.88272 73.2057 8.88272C74.2346 8.88272 75.0446 9.10586 75.6355 9.55214C76.2264 9.99429 76.6169 10.5873 76.807 11.3311Z" fill="black"/>
</svg>
