<svg width="21" height="21" viewBox="0 0 21 21" fill="none" xmlns="http://www.w3.org/2000/svg">
<path d="M16.0781 0H4.92188C2.2036 0 0 2.2036 0 4.92188V16.0781C0 18.7964 2.2036 21 4.92188 21H16.0781C18.7964 21 21 18.7964 21 16.0781V4.92188C21 2.2036 18.7964 0 16.0781 0Z" fill="white"/>
<path d="M5.9811 9.49026C5.9811 9.74466 6.00859 9.95088 6.05666 10.1022C6.1177 10.2725 6.19127 10.438 6.27678 10.5973C6.31117 10.6523 6.32486 10.7073 6.32486 10.7555C6.32486 10.8242 6.28358 10.893 6.19421 10.9617L5.76098 11.2506C5.6991 11.2918 5.63723 11.3125 5.58225 11.3125C5.51348 11.3125 5.4447 11.2781 5.37593 11.2162C5.28331 11.1166 5.20043 11.0084 5.12843 10.893C5.05157 10.7609 4.98043 10.6255 4.91521 10.4873C4.37888 11.12 3.70501 11.4363 2.89359 11.4362C2.31602 11.4362 1.85529 11.2712 1.51832 10.9411C1.18146 10.611 1.00952 10.171 1.00952 9.62091C1.00952 9.03633 1.21584 8.56192 1.63528 8.20436C2.05472 7.8468 2.6117 7.66797 3.31993 7.66797C3.55374 7.66797 3.79444 7.68866 4.04884 7.72305C4.30325 7.75743 4.56454 7.81241 4.83964 7.87429V7.37228C4.83964 6.84968 4.72958 6.48522 4.51647 6.27211C4.29635 6.05889 3.92509 5.95583 3.3956 5.95583C3.15489 5.95583 2.90739 5.98332 2.65299 6.0452C2.39859 6.10707 2.15098 6.18274 1.91027 6.27901C1.83208 6.31395 1.75171 6.3438 1.66967 6.36837C1.62159 6.38217 1.5871 6.38906 1.55961 6.38906C1.46345 6.38906 1.41516 6.32029 1.41516 6.17584V5.83887C1.41516 5.72892 1.42896 5.64635 1.46335 5.59827C1.49773 5.55019 1.55961 5.50201 1.65587 5.45382C1.89654 5.33007 2.18537 5.22695 2.52234 5.14445C2.8592 5.05498 3.21676 5.0138 3.59502 5.0138C4.4133 5.0138 5.01147 5.19942 5.39662 5.57068C5.77478 5.94203 5.9673 6.50592 5.9673 7.26232V9.49026H5.9811ZM3.18938 10.5355C3.41619 10.5355 3.65 10.4942 3.8976 10.4116C4.14511 10.3291 4.36512 10.1778 4.55085 9.97158C4.66081 9.84093 4.74338 9.69648 4.78456 9.53144C4.82574 9.36641 4.85333 9.16698 4.85333 8.93328V8.64439C4.64483 8.59366 4.43365 8.55465 4.22078 8.52753C4.00636 8.50042 3.79046 8.48663 3.57433 8.48625C3.1136 8.48625 2.77674 8.57572 2.54983 8.76134C2.32291 8.94697 2.21285 9.20827 2.21285 9.55214C2.21285 9.87531 2.29543 10.1159 2.46726 10.281C2.6324 10.4529 2.8731 10.5355 3.18938 10.5355ZM8.71083 11.2781C8.58708 11.2781 8.50451 11.2574 8.44953 11.2093C8.39456 11.168 8.34637 11.0717 8.30519 10.9411L6.68932 5.62576C6.64793 5.48821 6.62734 5.39885 6.62734 5.35066C6.62734 5.24071 6.68232 5.17873 6.79238 5.17873H7.46622C7.59686 5.17873 7.68633 5.19942 7.73441 5.2475C7.78939 5.28879 7.83067 5.38505 7.87196 5.5157L9.02711 10.0678L10.0999 5.5157C10.1343 5.37815 10.1755 5.28889 10.2305 5.2475C10.2855 5.20632 10.3818 5.17883 10.5055 5.17883H11.0556C11.1863 5.17883 11.2757 5.19942 11.3307 5.2475C11.3857 5.28879 11.4339 5.38505 11.4614 5.5157L12.5478 10.1228L13.7374 5.5157C13.7787 5.37815 13.8269 5.28889 13.8749 5.2475C13.9299 5.20632 14.0194 5.17883 14.1431 5.17883H14.7826C14.8926 5.17883 14.9545 5.23381 14.9545 5.35066C14.9545 5.38515 14.9476 5.41944 14.9407 5.46072C14.9339 5.50201 14.9201 5.55688 14.8926 5.63266L13.2355 10.948C13.1942 11.0855 13.146 11.1749 13.091 11.2162C13.0361 11.2574 12.9466 11.285 12.8297 11.285H12.2384C12.1077 11.285 12.0184 11.2643 11.9634 11.2162C11.9083 11.168 11.8602 11.0786 11.8327 10.9411L10.7668 6.50592L9.70795 10.9342C9.67356 11.0717 9.63228 11.1611 9.5773 11.2093C9.52222 11.2574 9.42596 11.2781 9.3022 11.2781H8.71083ZM17.5469 11.4637C17.1894 11.4637 16.8318 11.4224 16.4879 11.3399C16.1442 11.2574 15.876 11.168 15.6971 11.0648C15.5872 11.003 15.5115 10.9342 15.484 10.8723C15.4573 10.8116 15.4432 10.7461 15.4427 10.6798V10.3291C15.4427 10.1847 15.4977 10.1159 15.6009 10.1159C15.6422 10.1159 15.6834 10.1228 15.7246 10.1366C15.7659 10.1503 15.8278 10.1778 15.8966 10.2054C16.1394 10.3122 16.393 10.3928 16.653 10.446C16.9223 10.5007 17.1964 10.5283 17.4712 10.5286C17.9045 10.5286 18.2413 10.4529 18.4752 10.3016C18.709 10.1503 18.8327 9.93029 18.8327 9.6484C18.8327 9.45588 18.7708 9.29763 18.6471 9.16698C18.5233 9.03633 18.2895 8.91948 17.9526 8.80942L16.9555 8.50005C16.4535 8.34191 16.0822 8.1081 15.8553 7.79872C15.6284 7.49614 15.5115 7.15906 15.5115 6.8016C15.5115 6.51285 15.5734 6.25841 15.6971 6.0383C15.8209 5.81828 15.9859 5.62576 16.1922 5.47452C16.3986 5.31628 16.6324 5.19942 16.9074 5.11685C17.1825 5.03428 17.4712 5 17.7738 5C17.9251 5 18.0832 5.0069 18.2345 5.02749C18.3927 5.04808 18.537 5.07557 18.6815 5.10316C18.819 5.13755 18.9497 5.17193 19.0734 5.21322C19.1972 5.2544 19.2934 5.29565 19.3622 5.33697C19.4585 5.39195 19.5272 5.44693 19.5685 5.5088C19.6098 5.56385 19.6304 5.63952 19.6304 5.73582V6.05899C19.6304 6.20333 19.5754 6.27901 19.4723 6.27901C19.4172 6.27901 19.3278 6.25152 19.211 6.19643C18.819 6.01771 18.3789 5.92834 17.8907 5.92834C17.4987 5.92834 17.1894 5.99022 16.9761 6.12087C16.7629 6.25152 16.653 6.45094 16.653 6.73283C16.653 6.92535 16.7217 7.09039 16.8593 7.22104C16.9968 7.35169 17.2512 7.48234 17.6157 7.59919L18.5921 7.90857C19.0871 8.06681 19.4448 8.28683 19.6579 8.56882C19.871 8.85081 19.9742 9.17388 19.9742 9.53144C19.9742 9.82713 19.9123 10.0953 19.7954 10.3291C19.6717 10.5629 19.5067 10.7692 19.2934 10.9342C19.0803 11.1061 18.8258 11.2299 18.5302 11.3194C18.2208 11.4156 17.8976 11.4637 17.5469 11.4637Z" fill="#252F3E"/>
<path fill-rule="evenodd" clip-rule="evenodd" d="M18.8467 14.8058C16.5843 16.4768 13.2975 17.3638 10.4713 17.3638C6.51065 17.3638 2.94173 15.8991 0.246273 13.4649C0.0330531 13.2724 0.225682 13.0111 0.480083 13.1623C3.39566 14.8539 6.99196 15.8785 10.712 15.8785C13.2218 15.8785 15.9793 15.3559 18.5166 14.2832C18.8948 14.1113 19.2179 14.5307 18.8467 14.8058Z" fill="#FF9900"/>
<path fill-rule="evenodd" clip-rule="evenodd" d="M19.7888 13.7329C19.5 13.3615 17.8772 13.554 17.1414 13.6434C16.9214 13.671 16.887 13.4784 17.0864 13.334C18.3791 12.4264 20.5039 12.6877 20.7515 12.9902C20.999 13.2996 20.6827 15.4244 19.4725 16.4421C19.2868 16.6003 19.108 16.5177 19.1905 16.3115C19.4656 15.6307 20.0776 14.0972 19.7888 13.7329Z" fill="#FF9900"/>
</svg>
