<svg width="21" height="21" viewBox="0 0 21 21" fill="none" xmlns="http://www.w3.org/2000/svg">
<g clip-path="url(#clip0_146_684)">
<path d="M7.04576 0.733212H13.1802L6.8122 19.6011C6.74681 19.795 6.6222 19.9635 6.45595 20.0829C6.2897 20.2023 6.09018 20.2665 5.88551 20.2665H1.11151C0.956461 20.2664 0.80364 20.2295 0.665678 20.1588C0.527717 20.088 0.408578 19.9854 0.318108 19.8595C0.227601 19.7336 0.168409 19.5879 0.145438 19.4346C0.122468 19.2813 0.136381 19.1246 0.186024 18.9777L6.11907 1.39845C6.18453 1.20454 6.30915 1.03604 6.47538 0.916654C6.64162 0.797267 6.8411 0.733005 7.04576 0.73291V0.733212Z" fill="url(#paint0_linear_146_684)"/>
<path d="M15.96 13.3887H6.23224C6.14178 13.3885 6.05337 13.4156 5.97854 13.4664C5.9037 13.5172 5.84592 13.5894 5.81273 13.6736C5.77954 13.7577 5.77248 13.8499 5.79247 13.9381C5.81245 14.0264 5.85857 14.1065 5.92478 14.1681L12.1756 20.0025C12.3576 20.1722 12.5972 20.2665 12.8461 20.2667H18.3543L15.96 13.3887Z" fill="#0078D4"/>
<path d="M7.04576 0.733407C6.83883 0.732535 6.63705 0.797893 6.46993 0.919922C6.30281 1.04195 6.17912 1.21425 6.11695 1.41162L0.193407 18.962C0.140562 19.1094 0.123992 19.2674 0.145099 19.4226C0.166206 19.5778 0.224369 19.7256 0.31467 19.8536C0.404971 19.9815 0.524756 20.0859 0.663898 20.1578C0.80304 20.2297 0.957449 20.267 1.11407 20.2667H6.0114C6.19381 20.2341 6.36429 20.1537 6.50544 20.0337C6.64658 19.9136 6.75333 19.7583 6.81476 19.5835L7.99597 16.1021L12.2155 20.0376C12.3923 20.1839 12.6141 20.2648 12.8435 20.2667H18.3313L15.9244 13.3887L8.90819 13.3903L13.2024 0.733407H7.04576Z" fill="url(#paint1_linear_146_684)"/>
<path d="M14.8811 1.39774C14.8156 1.20412 14.6912 1.03589 14.5252 0.916721C14.3591 0.797549 14.1599 0.733434 13.9556 0.733398H7.1189C7.32323 0.733466 7.52241 0.797595 7.6884 0.916765C7.85438 1.03593 7.97883 1.20415 8.04423 1.39774L13.9774 18.9778C14.0271 19.1247 14.0411 19.2814 14.0181 19.4348C13.9952 19.5881 13.9361 19.7339 13.8457 19.8599C13.7552 19.9859 13.6361 20.0885 13.4981 20.1593C13.3601 20.2301 13.2072 20.267 13.0521 20.2669H19.8891C20.0441 20.2668 20.1969 20.2298 20.3348 20.159C20.4727 20.0882 20.5918 19.9855 20.6822 19.8596C20.7726 19.7336 20.8317 19.5879 20.8547 19.4346C20.8776 19.2813 20.8638 19.1247 20.8142 18.9778L14.8811 1.39774Z" fill="url(#paint2_linear_146_684)"/>
</g>
<defs>
<linearGradient id="paint0_linear_146_684" x1="9.28168" y1="2.1807" x2="2.91092" y2="21.0012" gradientUnits="userSpaceOnUse">
<stop stop-color="#114A8B"/>
<stop offset="1" stop-color="#0669BC"/>
</linearGradient>
<linearGradient id="paint1_linear_146_684" x1="11.2717" y1="10.9518" x2="9.79809" y2="11.4499" gradientUnits="userSpaceOnUse">
<stop stop-opacity="0.3"/>
<stop offset="0.071" stop-opacity="0.2"/>
<stop offset="0.321" stop-opacity="0.1"/>
<stop offset="0.623" stop-opacity="0.05"/>
<stop offset="1" stop-opacity="0"/>
</linearGradient>
<linearGradient id="paint2_linear_146_684" x1="10.4612" y1="1.6319" x2="17.4544" y2="20.2629" gradientUnits="userSpaceOnUse">
<stop stop-color="#3CCBF4"/>
<stop offset="1" stop-color="#2892DF"/>
</linearGradient>
<clipPath id="clip0_146_684">
<rect width="21" height="21" fill="white"/>
</clipPath>
</defs>
</svg>
