<svg width="24" height="24" viewBox="0 0 24 24" fill="none" xmlns="http://www.w3.org/2000/svg">
<g clip-path="url(#clip0_145_46)">
<path d="M18.375 0H5.625C2.5184 0 0 2.5184 0 5.625V18.375C0 21.4816 2.5184 24 5.625 24H18.375C21.4816 24 24 21.4816 24 18.375V5.625C24 2.5184 21.4816 0 18.375 0Z" fill="url(#paint0_linear_145_46)"/>
<g filter="url(#filter0_d_145_46)">
<path d="M12.3722 18.3897C15.1543 18.3897 16.8308 17.0274 16.8308 14.7806C16.8308 13.0822 15.6347 11.8526 13.8584 11.6579V11.5872C15.1634 11.3749 16.1874 10.163 16.1874 8.80959C16.1874 6.88116 14.665 5.625 12.345 5.625H7.125V18.3897H12.3722ZM9.15497 7.24378H11.8556C13.3237 7.24378 14.1575 7.89844 14.1575 9.08381C14.1575 10.3488 13.1878 11.0564 11.4297 11.0564H9.15497V7.24378ZM9.15497 16.7709V12.5692H11.8374C13.7587 12.5692 14.7556 13.2768 14.7556 14.6568C14.7556 16.0367 13.7859 16.7709 11.9553 16.7709H9.15497Z" fill="url(#paint1_linear_145_46)"/>
<path d="M12.3722 18.3897C15.1543 18.3897 16.8308 17.0274 16.8308 14.7806C16.8308 13.0822 15.6347 11.8526 13.8584 11.6579V11.5872C15.1634 11.3749 16.1874 10.163 16.1874 8.80959C16.1874 6.88116 14.665 5.625 12.345 5.625H7.125V18.3897H12.3722ZM9.15497 7.24378H11.8556C13.3237 7.24378 14.1575 7.89844 14.1575 9.08381C14.1575 10.3488 13.1878 11.0564 11.4297 11.0564H9.15497V7.24378ZM9.15497 16.7709V12.5692H11.8374C13.7587 12.5692 14.7556 13.2768 14.7556 14.6568C14.7556 16.0367 13.7859 16.7709 11.9553 16.7709H9.15497Z" stroke="white" stroke-width="0.125"/>
</g>
</g>
<defs>
<filter id="filter0_d_145_46" x="6.0625" y="4.8125" width="11.8308" height="14.8896" filterUnits="userSpaceOnUse" color-interpolation-filters="sRGB">
<feFlood flood-opacity="0" result="BackgroundImageFix"/>
<feColorMatrix in="SourceAlpha" type="matrix" values="0 0 0 0 0 0 0 0 0 0 0 0 0 0 0 0 0 0 127 0" result="hardAlpha"/>
<feOffset dy="0.25"/>
<feGaussianBlur stdDeviation="0.5"/>
<feColorMatrix type="matrix" values="0 0 0 0 0 0 0 0 0 0 0 0 0 0 0 0 0 0 0.15 0"/>
<feBlend mode="normal" in2="BackgroundImageFix" result="effect1_dropShadow_145_46"/>
<feBlend mode="normal" in="SourceGraphic" in2="effect1_dropShadow_145_46" result="shape"/>
</filter>
<linearGradient id="paint0_linear_145_46" x1="0" y1="0" x2="24" y2="24" gradientUnits="userSpaceOnUse">
<stop stop-color="#9013FE"/>
<stop offset="1" stop-color="#6B11F4"/>
</linearGradient>
<linearGradient id="paint1_linear_145_46" x1="8.04309" y1="6.46519" x2="13.9257" y2="16.4141" gradientUnits="userSpaceOnUse">
<stop stop-color="white"/>
<stop offset="1" stop-color="#F1E5FC"/>
</linearGradient>
<clipPath id="clip0_145_46">
<rect width="24" height="24" fill="white"/>
</clipPath>
</defs>
</svg>
