<svg width="40" height="40" viewBox="0 0 40 40" fill="none" xmlns="http://www.w3.org/2000/svg">
<rect width="40" height="40" rx="20" fill="#F7F7F7"/>
<g clip-path="url(#clip0_191_2045)">
<mask id="mask0_191_2045" style="mask-type:luminance" maskUnits="userSpaceOnUse" x="8" y="6" width="24" height="28">
<path d="M31.5657 6.78223H8.43457V33.2178H31.5657V6.78223Z" fill="white"/>
</mask>
<g mask="url(#mask0_191_2045)">
<path d="M20.0001 33.1687C19.6409 33.1687 19.3057 33.0717 18.9945 32.9021L15.8097 30.987C15.3308 30.7204 15.5702 30.6234 15.7139 30.5749C16.3604 30.3568 16.4801 30.3082 17.1506 29.9204C17.2225 29.8718 17.3183 29.896 17.39 29.9446L19.8325 31.4234C19.9283 31.4718 20.048 31.4718 20.1199 31.4234L29.6741 25.8236C29.7698 25.7752 29.8177 25.6783 29.8177 25.557V14.3817C29.8177 14.2605 29.7698 14.1636 29.6741 14.1151L20.1199 8.53955C20.024 8.49106 19.9043 8.49106 19.8325 8.53955L10.2783 14.1152C10.1825 14.1637 10.1346 14.2848 10.1346 14.3818V25.557C10.1346 25.654 10.1825 25.7752 10.2783 25.8236L12.8884 27.3507C14.3012 28.0779 15.187 27.2296 15.187 26.3812V15.3513C15.187 15.2059 15.3069 15.0604 15.4745 15.0604H16.6957C16.8394 15.0604 16.983 15.1816 16.983 15.3513V26.3811C16.983 28.2961 15.9534 29.4112 14.1574 29.4112C13.6067 29.4112 13.1757 29.4112 11.9546 28.8052L9.44023 27.3507C8.81768 26.987 8.43457 26.3084 8.43457 25.5811V14.4061C8.43457 13.6788 8.81768 13.0001 9.44023 12.6364L18.9945 7.03675C19.593 6.69739 20.4072 6.69739 21.0058 7.03675L30.56 12.6364C31.1826 13 31.5657 13.6787 31.5657 14.4061V25.5812C31.5657 26.3084 31.1826 26.9871 30.56 27.3507L21.0058 32.9507C20.6945 33.0961 20.3353 33.1687 20.0001 33.1687ZM22.9454 25.4843C18.7549 25.4843 17.8929 23.545 17.8929 21.8966C17.8929 21.7512 18.0127 21.6057 18.1803 21.6057H19.4254C19.569 21.6057 19.6888 21.7027 19.6888 21.8482C19.8804 23.1328 20.4311 23.7632 22.9693 23.7632C24.9807 23.7632 25.8428 23.3027 25.8428 22.2119C25.8428 21.5815 25.6034 21.121 22.4665 20.8057C19.8565 20.5391 18.2282 19.9574 18.2282 17.8485C18.2282 15.8848 19.8564 14.7213 22.5862 14.7213C25.6512 14.7213 27.1598 15.7878 27.3513 18.115C27.3513 18.1877 27.3274 18.2604 27.2795 18.3331C27.2316 18.3816 27.1598 18.4301 27.0879 18.4301H25.8428C25.723 18.4301 25.6034 18.3331 25.5793 18.212C25.292 16.8787 24.5497 16.4424 22.5862 16.4424C20.3833 16.4424 20.1199 17.2181 20.1199 17.7999C20.1199 18.5029 20.4311 18.721 23.4003 19.1088C26.3456 19.4966 27.7344 20.0543 27.7344 22.1391C27.7105 24.2723 25.9865 25.4843 22.9454 25.4843Z" fill="#539E43"/>
</g>
</g>
<defs>
<clipPath id="clip0_191_2045">
<rect width="23.1311" height="26.4356" fill="white" transform="translate(8.43457 6.78223)"/>
</clipPath>
</defs>
</svg>
