<svg width="16" height="16" viewBox="0 0 16 16" fill="none" xmlns="http://www.w3.org/2000/svg">
<path d="M5.33331 8H5.33929M7.99702 8H8.00295M10.6607 8H10.6666" stroke="black" stroke-width="1.2" stroke-linecap="round" stroke-linejoin="round"/>
<path d="M12 14C12.8215 14 13.4873 13.2325 13.4873 12.2857C13.4873 10.7872 13.4208 9.79095 14.4489 8.60608C14.7393 8.27135 14.7393 7.72861 14.4489 7.39388C13.4208 6.20903 13.4873 5.21277 13.4873 3.71429C13.4873 2.76751 12.8215 2 12 2" stroke="black" stroke-width="1.2" stroke-linecap="round" stroke-linejoin="round"/>
<path d="M3.99998 14C3.17854 14 2.51263 13.2325 2.51263 12.2857C2.51263 10.7872 2.57916 9.79095 1.55113 8.60608C1.26071 8.27135 1.26071 7.72861 1.55113 7.39388C2.55662 6.23501 2.51263 5.22661 2.51263 3.71429C2.51263 2.76751 3.17854 2 3.99998 2" stroke="black" stroke-width="1.2" stroke-linecap="round" stroke-linejoin="round"/>
</svg>
