<svg width="107" height="24" viewBox="0 0 107 24" fill="none" xmlns="http://www.w3.org/2000/svg">
<path fill-rule="evenodd" clip-rule="evenodd" d="M10.3487 22.4177C13.0836 22.4177 15.3087 20.1926 15.3087 17.4577V17.3138H5.38867V17.4577C5.38867 20.1926 7.61374 22.4177 10.3487 22.4177Z" fill="#924992"/>
<path fill-rule="evenodd" clip-rule="evenodd" d="M15.3087 14.636H5.38867V17.4576C5.38867 18.5394 5.73782 19.5406 6.32791 20.3567H14.3695C14.9596 19.5406 15.3087 18.5394 15.3087 17.4576V14.636Z" fill="#FF6868"/>
<path fill-rule="evenodd" clip-rule="evenodd" d="M5.38867 10.3372V16.7661H15.3087V10.3372C14.2063 10.3372 10.8997 10.3372 5.38867 10.3372Z" fill="#FEED30"/>
<path fill-rule="evenodd" clip-rule="evenodd" d="M14.517 17.4576C14.517 20.1925 12.2919 22.4176 9.55699 22.4176C6.82205 22.4176 4.59698 20.1925 4.59698 17.4576V10.4342L14.517 10.447V17.4576ZM3.01465 10.048V17.4576C3.01465 21.065 5.94951 23.9999 9.55699 23.9999C13.1644 23.9999 16.0993 21.065 16.0993 17.4576V10.0648L3.01465 10.048Z" fill="#111111"/>
<path fill-rule="evenodd" clip-rule="evenodd" d="M0.603027 0H18.6896V8.44038L18.5849 8.48197C12.8079 10.7774 6.36933 10.7625 0.603027 8.44038V0Z" fill="#F5F7F9"/>
<path fill-rule="evenodd" clip-rule="evenodd" d="M18.1439 7.92037C18.5488 7.75648 19.0101 7.95214 19.174 8.35728C19.3377 8.7623 19.1421 9.22349 18.7371 9.38732C18.0525 9.66415 17.3585 9.90847 16.6561 10.1205L16.1279 10.2735L14.5455 10.6557C12.9343 10.9873 11.287 11.1544 9.61595 11.1544C8.09304 11.1544 6.58985 11.0154 5.11578 10.7399L4.68984 10.6556L4.62551 10.6557L3.04318 10.2567C2.18099 10.0151 1.33085 9.72539 0.494768 9.38732C0.0896907 9.22349 -0.10591 8.7623 0.0579223 8.35728C0.221755 7.95214 0.682944 7.75648 1.08802 7.92037C3.79813 9.01632 6.66733 9.57203 9.61595 9.57203C12.5646 9.57203 15.4338 9.01632 18.1439 7.92037Z" fill="#111111"/>
<path fill-rule="evenodd" clip-rule="evenodd" d="M4.22988 6.98551C4.90212 6.98551 5.44705 6.44058 5.44705 5.76833C5.44705 5.09608 4.90212 4.55115 4.22988 4.55115C3.55763 4.55115 3.0127 5.09608 3.0127 5.76833C3.0127 6.44058 3.55763 6.98551 4.22988 6.98551Z" fill="#111111"/>
<path fill-rule="evenodd" clip-rule="evenodd" d="M15.0018 6.98551C15.6741 6.98551 16.219 6.44058 16.219 5.76833C16.219 5.09608 15.6741 4.55115 15.0018 4.55115C14.3296 4.55115 13.7847 5.09608 13.7847 5.76833C13.7847 6.44058 14.3296 6.98551 15.0018 6.98551Z" fill="#111111"/>
<path d="M34.1699 9.93388H32.2361C32.1617 9.52066 32.0233 9.15703 31.8208 8.84298C31.6183 8.52893 31.3704 8.2624 31.077 8.04339C30.7836 7.82438 30.4551 7.65909 30.0914 7.54752C29.7319 7.43595 29.3497 7.38017 28.9447 7.38017C28.2133 7.38017 27.5584 7.56405 26.9799 7.93182C26.4055 8.29959 25.9509 8.83884 25.6162 9.54959C25.2857 10.2603 25.1204 11.1281 25.1204 12.1529C25.1204 13.186 25.2857 14.0579 25.6162 14.7686C25.9509 15.4793 26.4076 16.0165 26.9861 16.3802C27.5646 16.7438 28.2154 16.9256 28.9385 16.9256C29.3394 16.9256 29.7195 16.8719 30.079 16.7645C30.4427 16.6529 30.7712 16.4897 31.0646 16.2748C31.358 16.0599 31.6059 15.7975 31.8084 15.4876C32.015 15.1736 32.1576 14.814 32.2361 14.4091L34.1699 14.4153C34.0666 15.0393 33.8662 15.6136 33.5687 16.1384C33.2753 16.6591 32.8972 17.1095 32.4344 17.4897C31.9757 17.8657 31.4509 18.157 30.86 18.3636C30.2691 18.5702 29.6245 18.6736 28.9261 18.6736C27.827 18.6736 26.8476 18.4132 25.9881 17.8926C25.1286 17.3678 24.4509 16.6178 23.9551 15.6426C23.4633 14.6674 23.2175 13.5041 23.2175 12.1529C23.2175 10.7975 23.4654 9.6343 23.9613 8.66322C24.4571 7.68802 25.1348 6.94008 25.9943 6.41942C26.8538 5.89463 27.8311 5.63223 28.9261 5.63223C29.5997 5.63223 30.2278 5.72934 30.8104 5.92355C31.3972 6.11364 31.9241 6.39463 32.391 6.76653C32.858 7.1343 33.2443 7.58471 33.5501 8.11777C33.8559 8.64669 34.0625 9.25207 34.1699 9.93388ZM39.6252 18.6921C38.7326 18.6921 37.9537 18.4876 37.2884 18.0785C36.6231 17.6694 36.1066 17.0971 35.7388 16.3616C35.371 15.626 35.1872 14.7665 35.1872 13.7831C35.1872 12.7955 35.371 11.9318 35.7388 11.1921C36.1066 10.4525 36.6231 9.8781 37.2884 9.46901C37.9537 9.05992 38.7326 8.85537 39.6252 8.85537C40.5177 8.85537 41.2967 9.05992 41.962 9.46901C42.6272 9.8781 43.1438 10.4525 43.5115 11.1921C43.8793 11.9318 44.0632 12.7955 44.0632 13.7831C44.0632 14.7665 43.8793 15.626 43.5115 16.3616C43.1438 17.0971 42.6272 17.6694 41.962 18.0785C41.2967 18.4876 40.5177 18.6921 39.6252 18.6921ZM39.6314 17.1364C40.2099 17.1364 40.6892 16.9835 41.0694 16.6777C41.4496 16.3719 41.7305 15.9649 41.9124 15.4566C42.0983 14.9483 42.1913 14.3884 42.1913 13.7769C42.1913 13.1694 42.0983 12.6116 41.9124 12.1033C41.7305 11.5909 41.4496 11.1798 41.0694 10.8698C40.6892 10.5599 40.2099 10.405 39.6314 10.405C39.0487 10.405 38.5653 10.5599 38.181 10.8698C37.8008 11.1798 37.5177 11.5909 37.3318 12.1033C37.15 12.6116 37.0591 13.1694 37.0591 13.7769C37.0591 14.3884 37.15 14.9483 37.3318 15.4566C37.5177 15.9649 37.8008 16.3719 38.181 16.6777C38.5653 16.9835 39.0487 17.1364 39.6314 17.1364ZM47.287 5.80579V18.5H45.4337V5.80579H47.287ZM53.0924 18.6921C52.1999 18.6921 51.421 18.4876 50.7557 18.0785C50.0904 17.6694 49.5739 17.0971 49.2061 16.3616C48.8383 15.626 48.6544 14.7665 48.6544 13.7831C48.6544 12.7955 48.8383 11.9318 49.2061 11.1921C49.5739 10.4525 50.0904 9.8781 50.7557 9.46901C51.421 9.05992 52.1999 8.85537 53.0924 8.85537C53.985 8.85537 54.7639 9.05992 55.4292 9.46901C56.0945 9.8781 56.611 10.4525 56.9788 11.1921C57.3466 11.9318 57.5305 12.7955 57.5305 13.7831C57.5305 14.7665 57.3466 15.626 56.9788 16.3616C56.611 17.0971 56.0945 17.6694 55.4292 18.0785C54.7639 18.4876 53.985 18.6921 53.0924 18.6921ZM53.0986 17.1364C53.6772 17.1364 54.1565 16.9835 54.5367 16.6777C54.9168 16.3719 55.1978 15.9649 55.3796 15.4566C55.5656 14.9483 55.6586 14.3884 55.6586 13.7769C55.6586 13.1694 55.5656 12.6116 55.3796 12.1033C55.1978 11.5909 54.9168 11.1798 54.5367 10.8698C54.1565 10.5599 53.6772 10.405 53.0986 10.405C52.516 10.405 52.0325 10.5599 51.6482 10.8698C51.2681 11.1798 50.985 11.5909 50.7991 12.1033C50.6172 12.6116 50.5263 13.1694 50.5263 13.7769C50.5263 14.3884 50.6172 14.9483 50.7991 15.4566C50.985 15.9649 51.2681 16.3719 51.6482 16.6777C52.0325 16.9835 52.516 17.1364 53.0986 17.1364ZM58.901 18.5V8.97934H60.6923V10.4917H60.7915C60.965 9.97934 61.2708 9.57645 61.7088 9.28306C62.151 8.98554 62.651 8.83678 63.2088 8.83678C63.3245 8.83678 63.4609 8.84091 63.6179 8.84917C63.7791 8.85744 63.9051 8.86777 63.996 8.88017V10.6529C63.9216 10.6322 63.7894 10.6095 63.5993 10.5847C63.4092 10.5558 63.2192 10.5413 63.0291 10.5413C62.5911 10.5413 62.2006 10.6343 61.8576 10.8202C61.5187 11.0021 61.2502 11.2562 61.0518 11.5826C60.8535 11.905 60.7543 12.2727 60.7543 12.686V18.5H58.901ZM68.9716 18.5V5.80579H70.8868V11.3223H77.2154V5.80579H79.1368V18.5H77.2154V12.9649H70.8868V18.5H68.9716ZM87.1102 14.5517V8.97934H88.9697V18.5H87.1473V16.8512H87.0482C86.8292 17.3595 86.4779 17.7831 85.9945 18.1219C85.5151 18.4566 84.918 18.624 84.2031 18.624C83.5916 18.624 83.0502 18.4897 82.5792 18.2211C82.1122 17.9483 81.7445 17.5455 81.4759 17.0124C81.2114 16.4793 81.0792 15.8202 81.0792 15.0351V8.97934H82.9325V14.812C82.9325 15.4607 83.1122 15.9773 83.4717 16.3616C83.8312 16.7459 84.2982 16.938 84.8726 16.938C85.2197 16.938 85.5647 16.8512 85.9077 16.6777C86.2548 16.5041 86.542 16.2417 86.7692 15.8905C87.0006 15.5393 87.1143 15.093 87.1102 14.5517ZM92.615 12.8471V18.5H90.7617V8.97934H92.5406V10.5289H92.6584C92.8774 10.0248 93.2203 9.61984 93.6873 9.31405C94.1584 9.00827 94.7513 8.85537 95.4662 8.85537C96.115 8.85537 96.6831 8.99174 97.1708 9.26446C97.6584 9.53306 98.0365 9.93388 98.305 10.4669C98.5736 11 98.7079 11.6591 98.7079 12.4442V18.5H96.8546V12.6674C96.8546 11.9773 96.6749 11.438 96.3154 11.0496C95.9559 10.657 95.4621 10.4607 94.834 10.4607C94.4042 10.4607 94.022 10.5537 93.6873 10.7397C93.3567 10.9256 93.0943 11.1983 92.9001 11.5579C92.71 11.9132 92.615 12.343 92.615 12.8471ZM104.94 8.97934V10.4669H99.7391V8.97934H104.94ZM101.134 6.69835H102.987V15.7045C102.987 16.064 103.041 16.3347 103.148 16.5165C103.256 16.6942 103.394 16.8161 103.563 16.8822C103.737 16.9442 103.925 16.9752 104.128 16.9752C104.276 16.9752 104.406 16.9649 104.518 16.9442C104.63 16.9236 104.716 16.907 104.778 16.8946L105.113 18.4256C105.006 18.4669 104.853 18.5083 104.654 18.5496C104.456 18.595 104.208 18.6198 103.911 18.624C103.423 18.6322 102.968 18.5455 102.547 18.3636C102.125 18.1818 101.785 17.9008 101.524 17.5207C101.264 17.1405 101.134 16.6632 101.134 16.0888V6.69835Z" fill="black"/>
</svg>
