<svg width="16" height="17" viewBox="0 0 16 17" fill="none" xmlns="http://www.w3.org/2000/svg">
<g clip-path="url(#clip0_146_497)">
<path d="M14.425 4.3374L8.3875 0.862402C8.2875 0.799902 8.15 0.774902 8 0.774902C7.85 0.774902 7.7125 0.812402 7.6125 0.862402L1.6125 4.3499C1.4 4.4749 1.25 4.7874 1.25 5.0249V11.9874C1.25 12.1249 1.275 12.2874 1.375 12.4249L14.725 4.6749C14.65 4.5249 14.5375 4.4124 14.425 4.3374Z" fill="#9B4F96"/>
<path d="M1.33752 12.4126C1.40002 12.5126 1.48752 12.6001 1.57502 12.6501L7.60002 16.1376C7.70002 16.2001 7.83752 16.2251 7.98752 16.2251C8.13752 16.2251 8.27502 16.1876 8.37502 16.1376L14.375 12.6501C14.5875 12.5251 14.7375 12.2126 14.7375 11.9751V5.0126C14.7375 4.9001 14.725 4.7751 14.6625 4.6626L1.33752 12.4126Z" fill="#68217A"/>
<path d="M10.6625 10.0125C10.1375 10.9375 9.1375 11.5625 8 11.5625C6.3125 11.5625 4.9375 10.1875 4.9375 8.5C4.9375 6.8125 6.3125 5.4375 8 5.4375C9.1375 5.4375 10.1375 6.0625 10.6625 7L12.2875 6.0625C11.4375 4.575 9.8375 3.5625 8 3.5625C5.275 3.5625 3.0625 5.775 3.0625 8.5C3.0625 11.225 5.275 13.4375 8 13.4375C9.825 13.4375 11.425 12.4375 12.275 10.9625L10.6625 10.0125ZM12.125 8.775L12.2375 8.2375H11.7125V7.65H12.35L12.5 6.875H13.1125L12.9625 7.6375H13.4375L13.5875 6.875H14.1875L14.0375 7.6375H14.3375V8.225H13.925L13.8125 8.7625H14.3375V9.35H13.7L13.55 10.1H12.9375L13.0875 9.35H12.6125L12.4625 10.1H11.8625L12.0125 9.35H11.7125V8.7625H12.125V8.775ZM12.725 8.775H13.2L13.3125 8.2375H12.8375L12.725 8.775Z" fill="white"/>
</g>
<defs>
<clipPath id="clip0_146_497">
<rect width="16" height="16" fill="white" transform="translate(0 0.5)"/>
</clipPath>
</defs>
</svg>
