<svg width="16" height="16" viewBox="0 0 16 16" fill="none" xmlns="http://www.w3.org/2000/svg">
<g clip-path="url(#clip0_48_72)">
<path d="M13.5399 11.4547L13.5178 2.94169L5.00477 2.9196C4.91608 2.90759 4.82584 2.91478 4.74017 2.94068C4.65449 2.96658 4.57538 3.01058 4.50819 3.06971C4.44101 3.12884 4.38731 3.20171 4.35073 3.2834C4.31415 3.36509 4.29556 3.45368 4.2962 3.54318C4.29683 3.63268 4.3167 3.721 4.35443 3.80216C4.39217 3.88331 4.44691 3.95541 4.51494 4.01358C4.58296 4.07174 4.66269 4.11461 4.74873 4.13928C4.83476 4.16395 4.92509 4.16985 5.01361 4.15657L11.3929 4.18308L2.94167 12.6343C2.82451 12.7514 2.75869 12.9103 2.75869 13.076C2.75869 13.2417 2.82451 13.4006 2.94167 13.5178C3.05884 13.635 3.21775 13.7008 3.38345 13.7008C3.54915 13.7008 3.70806 13.635 3.82523 13.5178L12.2764 5.06663L12.3029 11.4459C12.3035 11.6117 12.3699 11.7704 12.4876 11.8873C12.6052 12.0041 12.7644 12.0694 12.9302 12.0688C13.096 12.0682 13.2548 12.0018 13.3716 11.8841C13.4884 11.7665 13.5537 11.6073 13.5531 11.4415L13.5399 11.4547Z" fill="black"/>
</g>
<defs>
<clipPath id="clip0_48_72">
<rect width="16" height="16" fill="white"/>
</clipPath>
</defs>
</svg>
