<svg width="21" height="21" viewBox="0 0 21 21" fill="none" xmlns="http://www.w3.org/2000/svg">
<g clip-path="url(#clip0_146_317)">
<path d="M16.0781 0H4.92188C2.2036 0 0 2.2036 0 4.92188V16.0781C0 18.7964 2.2036 21 4.92188 21H16.0781C18.7964 21 21 18.7964 21 16.0781V4.92188C21 2.2036 18.7964 0 16.0781 0Z" fill="#2396ED"/>
<path d="M11.5817 10.0179H13.2812V8.48031H11.5817V10.0179ZM9.55869 10.0179H11.258V8.48031H9.55869V10.0179ZM7.576 10.0179H9.27544V8.48031H7.576V10.0179ZM5.5933 10.0179H7.25238V8.48031H5.59338L5.5933 10.0179ZM3.57025 10.0179H5.26969V8.48031H3.57025V10.0179ZM5.59338 8.15661H7.2523V6.6191H5.59338V8.15661ZM7.57608 8.15661H9.27544V6.6191H7.576L7.57608 8.15661ZM9.55869 8.15661H11.258V6.6191H9.55869V8.15661ZM9.55869 6.29532H11.258V4.75781H9.55869V6.29532ZM18.7031 9.33015C18.7031 9.33015 17.9748 8.64224 16.4777 8.88505C16.3159 7.71159 15.0615 7.02376 15.0615 7.02376C15.0615 7.02376 13.8881 8.43995 14.7378 10.018C14.4951 10.1394 14.0904 10.3012 13.4835 10.3012H2.35643C2.15406 11.07 2.15406 16.1682 7.73784 16.1682C11.7436 16.1682 14.7378 14.307 16.154 10.9081C18.258 11.07 18.7031 9.33015 18.7031 9.33015Z" fill="white"/>
</g>
<defs>
<clipPath id="clip0_146_317">
<rect width="21" height="21" fill="white"/>
</clipPath>
</defs>
</svg>
