<svg width="16" height="17" viewBox="0 0 16 17" fill="none" xmlns="http://www.w3.org/2000/svg">
<path d="M15.8338 12.8051C15.2638 12.9501 14.9113 12.8113 14.595 12.3363C13.885 11.2726 13.1013 10.2576 12.345 9.22383C12.2475 9.09008 12.1463 8.95883 12.02 8.79258C11.125 10.0001 10.2313 11.1501 9.39251 12.3463C9.09251 12.7738 8.77751 12.9601 8.21751 12.8088L11.5825 8.29258L8.45001 4.21383C8.98876 4.10883 9.36126 4.16258 9.69126 4.64508C10.42 5.71008 11.2238 6.72383 12.025 7.79633C12.8313 6.72758 13.625 5.71258 14.375 4.65758C14.6763 4.23008 15 4.06758 15.5413 4.22508C15.1313 4.76883 14.73 5.30383 14.3263 5.83508C13.7813 6.55133 13.2463 7.27633 12.6813 7.97758C12.48 8.22758 12.5125 8.39008 12.6925 8.62633C13.7375 10.0001 14.77 11.3876 15.8338 12.8051ZM0.166256 8.21758C0.256256 7.76633 0.316256 7.30633 0.441256 6.86383C1.19126 4.18508 4.26626 3.07133 6.37876 4.73133C7.61626 5.70508 7.92376 7.07758 7.86251 8.62508H0.887506C0.782506 11.4013 2.78126 13.0776 5.32876 12.2226C6.22251 11.9226 6.74876 11.2226 7.01251 10.3476C7.14626 9.90883 7.36751 9.84008 7.78001 9.96508C7.56876 11.0601 7.09001 11.9751 6.09001 12.5476C4.59001 13.4051 2.44876 13.1276 1.32251 11.9363C0.657506 11.2363 0.375006 10.3651 0.250006 9.42383C0.231256 9.27383 0.192506 9.12633 0.162506 8.97758C0.165006 8.72425 0.166256 8.47091 0.166256 8.21758ZM0.900006 8.03133H7.20376C7.16251 6.02383 5.91251 4.59758 4.20376 4.58508C2.32876 4.57008 0.981256 5.96258 0.900006 8.03133Z" fill="black"/>
</svg>
