<svg width="24" height="24" viewBox="0 0 24 24" fill="none" xmlns="http://www.w3.org/2000/svg">
<g clip-path="url(#clip0_102_95)">
<path d="M3.27637 19.3642L6.23043 0.461565C6.24812 0.348598 6.30086 0.244044 6.38119 0.162671C6.46152 0.081298 6.56539 0.0272185 6.67812 0.00807107C6.79085 -0.0110764 6.90674 0.00567582 7.00944 0.0559616C7.11213 0.106247 7.19643 0.187525 7.25043 0.288315L10.3056 5.98644L11.5232 3.66782C11.5695 3.57987 11.6389 3.50623 11.724 3.45487C11.8091 3.4035 11.9066 3.37635 12.006 3.37635C12.1054 3.37635 12.2029 3.4035 12.288 3.45487C12.3731 3.50623 12.4425 3.57987 12.4888 3.66782L20.7332 19.3642H3.27637Z" fill="#FFA000"/>
<path d="M13.4818 12.0009L10.3041 5.98364L3.27637 19.3642L13.4818 12.0009Z" fill="#F57C00"/>
<path d="M20.7332 19.3643L18.4706 5.36331C18.4539 5.26461 18.4103 5.17242 18.3447 5.09682C18.2791 5.02122 18.194 4.96513 18.0986 4.93468C18.0033 4.90431 17.9014 4.90074 17.8042 4.92435C17.707 4.94796 17.6181 4.99785 17.5474 5.06856L3.27637 19.3641L11.1729 23.7925C11.4168 23.9286 11.6915 24.0001 11.9707 24.0001C12.25 24.0001 12.5247 23.9286 12.7686 23.7925L20.7332 19.3643Z" fill="#FFCA28"/>
<path d="M18.4704 5.36322C18.4537 5.26452 18.4101 5.17233 18.3445 5.09673C18.2789 5.02113 18.1938 4.96504 18.0984 4.93459C18.0031 4.9042 17.9013 4.90059 17.8041 4.92417C17.7068 4.94775 17.618 4.9976 17.5472 5.06828L14.7146 7.90834L12.4873 3.66784C12.441 3.57989 12.3715 3.50626 12.2865 3.45489C12.2014 3.40353 12.1039 3.37638 12.0045 3.37638C11.9051 3.37638 11.8076 3.40353 11.7225 3.45489C11.6374 3.50626 11.568 3.57989 11.5217 3.66784L10.304 5.98628L7.24891 0.288343C7.19485 0.187414 7.1104 0.106051 7.00753 0.055777C6.90466 0.00550261 6.78858 -0.0111359 6.67573 0.00821767C6.56295 0.0275659 6.45911 0.0818783 6.3789 0.163474C6.29868 0.245069 6.24615 0.349818 6.22873 0.462905L3.27616 19.3642H3.2666L3.27598 19.3751L3.35379 19.4133L17.543 5.20759C17.6138 5.13652 17.7028 5.08632 17.8002 5.06252C17.8976 5.03872 17.9997 5.04223 18.0953 5.07267C18.1909 5.10311 18.2762 5.1593 18.3419 5.23507C18.4076 5.31083 18.4512 5.40325 18.4678 5.50215L20.7112 19.3777L20.733 19.364L18.4704 5.36322ZM3.30204 19.3383L6.23004 0.596593C6.24744 0.483445 6.29998 0.378635 6.38024 0.297C6.46049 0.215365 6.56439 0.161041 6.67723 0.141718C6.7901 0.12238 6.90619 0.139047 7.00907 0.189356C7.11194 0.239665 7.19637 0.321067 7.25041 0.42203L10.3052 6.12015L11.523 3.80153C11.5693 3.71358 11.6387 3.63995 11.7238 3.58858C11.8089 3.53722 11.9064 3.51007 12.0058 3.51007C12.1052 3.51007 12.2027 3.53722 12.2878 3.58858C12.3729 3.63995 12.4423 3.71358 12.4886 3.80153L14.6707 7.95184L3.30166 19.3383H3.30204Z" fill="white" fill-opacity="0.2"/>
<path opacity="0.2" d="M12.7684 23.6587C12.5246 23.7948 12.2499 23.8663 11.9706 23.8663C11.6913 23.8663 11.4167 23.7948 11.1728 23.6587L3.295 19.2431L3.27588 19.3644L11.1724 23.7913C11.4163 23.9274 11.691 23.9989 11.9703 23.9989C12.2495 23.9989 12.5242 23.9274 12.7681 23.7913L20.7331 19.3644L20.7124 19.2388L12.7681 23.6591L12.7684 23.6587Z" fill="#A52714"/>
</g>
<defs>
<clipPath id="clip0_102_95">
<rect width="24" height="24" fill="white"/>
</clipPath>
</defs>
</svg>
