<svg width="16" height="16" viewBox="0 0 16 16" fill="none" xmlns="http://www.w3.org/2000/svg">
<path d="M1.33331 12.6667V5.03268C1.33331 4.07011 1.33331 3.58881 1.49553 3.21098C1.69778 2.7399 2.07321 2.36447 2.54429 2.16221C2.92213 2 3.39868 2 4.36599 2H4.69539C5.09877 2 5.48048 2.18263 5.73359 2.49673L6.94498 4M6.94498 4H10.6666C11.6 4 12.0668 4 12.4233 4.18165C12.7369 4.34145 12.9918 4.59641 13.1516 4.91001C13.3333 5.26653 13.3333 5.73325 13.3333 6.66667V7.33333M6.94498 4H4.66665" stroke="black" stroke-width="1.2" stroke-linecap="round" stroke-linejoin="round"/>
<path d="M2.10533 10.3429L2.30427 9.84781C2.79351 8.62994 3.03813 8.02108 3.54825 7.67721C4.05836 7.33334 4.71703 7.33334 6.03436 7.33334H11.4079C13.2002 7.33334 14.0964 7.33334 14.4948 7.91914C14.8931 8.50501 14.5603 9.33348 13.8946 10.9904L13.6957 11.4855C13.2064 12.7034 12.9618 13.3123 12.4517 13.6561C11.9416 14 11.2829 14 9.96558 14H4.59206C2.79972 14 1.90355 14 1.50519 13.4142C1.10684 12.8283 1.43967 11.9999 2.10533 10.3429Z" stroke="black" stroke-width="1.2" stroke-linejoin="round"/>
</svg>
