<svg width="24" height="24" viewBox="0 0 24 24" fill="none" xmlns="http://www.w3.org/2000/svg">
<g clip-path="url(#clip0_87_56)">
<path d="M12 19.5C15.75 19.5 19.159 16.121 18.768 15.375C18.375 14.625 16.5 17.25 12 17.25C7.5 17.25 6 14.625 5.625 15.375C5.25 16.125 8.25 19.5 12 19.5ZM16.125 7.5C16.748 7.5 17.25 8.002 17.25 8.625V10.125C17.25 10.748 16.748 11.25 16.125 11.25C15.9772 11.2503 15.8308 11.2213 15.6942 11.1649C15.5576 11.1085 15.4334 11.0256 15.3289 10.9211C15.2244 10.8166 15.1415 10.6924 15.0851 10.5558C15.0287 10.4192 14.9997 10.2728 15 10.125V8.625C15 8.002 15.502 7.5 16.125 7.5ZM7.875 7.5C8.498 7.5 9 8.002 9 8.625V10.125C9 10.748 8.498 11.25 7.875 11.25C7.72719 11.2503 7.58078 11.2213 7.44417 11.1649C7.30756 11.1085 7.18344 11.0256 7.07892 10.9211C6.9744 10.8166 6.89154 10.6924 6.8351 10.5558C6.77866 10.4192 6.74974 10.2728 6.75 10.125V8.625C6.75 8.002 7.252 7.5 7.875 7.5ZM12 0C5.381 0 0 5.381 0 12C0 18.619 5.381 24 12 24C18.619 24 24 18.619 24 12C24 5.381 18.619 0 12 0ZM12 1.5C17.808 1.5 22.5 6.192 22.5 12C22.5 17.808 17.808 22.5 12 22.5C6.192 22.5 1.5 17.808 1.5 12C1.5 6.192 6.192 1.5 12 1.5Z" fill="#307594"/>
</g>
<defs>
<clipPath id="clip0_87_56">
<rect width="24" height="24" fill="white"/>
</clipPath>
</defs>
</svg>
