<svg width="16" height="17" viewBox="0 0 16 17" fill="none" xmlns="http://www.w3.org/2000/svg">
<g clip-path="url(#clip0_146_470)">
<path d="M5.9521 12.765C5.9521 12.765 5.35623 13.1118 6.37673 13.2288C7.61323 13.37 8.2451 13.3498 9.60735 13.0923C9.60735 13.0923 9.96623 13.3166 10.4665 13.5111C7.4116 14.8199 3.55298 13.4353 5.9521 12.765ZM5.5786 11.0569C5.5786 11.0569 4.9101 11.5518 5.93148 11.6575C7.25235 11.7939 8.29523 11.805 10.1007 11.4575C10.1007 11.4575 10.3499 11.7106 10.7422 11.8489C7.04948 12.9289 2.93648 11.9339 5.5786 11.0569Z" fill="#0074BD"/>
<path d="M8.72525 8.15887C9.47838 9.02575 8.52775 9.80512 8.52775 9.80512C8.52775 9.80512 10.4389 8.81875 9.56138 7.583C8.7415 6.43112 8.113 5.859 11.5158 3.8855C11.5158 3.88562 6.17438 5.21925 8.72525 8.15887Z" fill="#EA2D2E"/>
<path d="M12.7654 14.0286C12.7654 14.0286 13.2065 14.3924 12.2794 14.6735C10.5166 15.2075 4.94112 15.3685 3.39262 14.6949C2.83624 14.4526 3.87999 14.1167 4.20836 14.0459C4.55074 13.9717 4.74624 13.9852 4.74624 13.9852C4.12712 13.5494 0.744615 14.8415 3.02836 15.2121C9.25599 16.2216 14.3805 14.7575 12.7654 14.0286ZM6.23899 9.28675C6.23899 9.28675 3.40324 9.96037 5.23487 10.2052C6.00837 10.3087 7.54961 10.285 8.98624 10.1645C10.16 10.0659 11.3379 9.85525 11.3379 9.85525C11.3379 9.85525 10.9244 10.0326 10.6249 10.2369C7.74462 10.9945 2.18186 10.6416 3.78349 9.86712C5.13749 9.21225 6.23899 9.28675 6.23899 9.28675ZM11.3261 12.1301C14.2537 10.6092 12.9 9.14762 11.9551 9.3445C11.7241 9.39262 11.6205 9.4345 11.6205 9.4345C11.6205 9.4345 11.7065 9.29962 11.8705 9.24162C13.7396 8.58475 15.1769 11.1795 11.2676 12.2072C11.2676 12.207 11.3125 12.1664 11.3261 12.1301Z" fill="#0074BD"/>
<path d="M9.5614 0.698486C9.5614 0.698486 11.1824 2.32049 8.02352 4.81386C5.49027 6.81461 7.4459 7.95511 8.02265 9.25874C6.54377 7.92461 5.45902 6.74999 6.18665 5.65686C7.25515 4.05261 10.2153 3.27449 9.5614 0.698486Z" fill="#EA2D2E"/>
<path d="M6.52674 16.2527C9.33624 16.4324 13.6517 16.1527 13.7539 14.8232C13.7539 14.8232 13.5575 15.3272 11.4317 15.7271C9.03349 16.1786 6.07499 16.126 4.32086 15.8364C4.32086 15.8365 4.68024 16.134 6.52674 16.2527Z" fill="#0074BD"/>
</g>
<defs>
<clipPath id="clip0_146_470">
<rect width="16" height="16" fill="white" transform="translate(0 0.5)"/>
</clipPath>
</defs>
</svg>
