<svg width="21" height="24" viewBox="0 0 21 24" fill="none" xmlns="http://www.w3.org/2000/svg">
<g clip-path="url(#clip0_145_42)">
<path d="M10.5 23.9554C10.1739 23.9554 9.86959 23.8674 9.58699 23.7134L6.69564 21.9747C6.26087 21.7327 6.47825 21.6446 6.60868 21.6006C7.19562 21.4026 7.30431 21.3585 7.91298 21.0064C7.97828 20.9623 8.06523 20.9843 8.13036 21.0284L10.3478 22.3709C10.4348 22.4149 10.5435 22.4149 10.6087 22.3709L19.2827 17.2871C19.3696 17.2431 19.4131 17.1551 19.4131 17.045V6.89934C19.4131 6.7893 19.3696 6.70127 19.2827 6.65726L10.6087 1.59542C10.5217 1.5514 10.413 1.5514 10.3478 1.59542L1.67385 6.65734C1.58689 6.70136 1.54342 6.81139 1.54342 6.89942V17.045C1.54342 17.1331 1.58689 17.2431 1.67385 17.2871L4.04348 18.6735C5.32612 19.3337 6.13036 18.5635 6.13036 17.7933V7.77961C6.13036 7.64757 6.23913 7.51553 6.3913 7.51553H7.50004C7.63046 7.51553 7.76089 7.62556 7.76089 7.77961V17.7932C7.76089 19.5318 6.82607 20.5441 5.19561 20.5441C4.69563 20.5441 4.30434 20.5441 3.19569 19.994L0.913008 18.6735C0.347813 18.3433 0 17.7272 0 17.0669V6.92143C0 6.26122 0.347813 5.64502 0.913008 5.31484L9.58699 0.231073C10.1304 -0.0770242 10.8696 -0.0770242 11.413 0.231073L20.087 5.31484C20.6522 5.64494 21 6.26113 21 6.92143V17.067C21 17.7272 20.6522 18.3434 20.087 18.6735L11.413 23.7575C11.1304 23.8895 10.8043 23.9555 10.5 23.9555M13.1739 16.979C9.36953 16.979 8.58695 15.2184 8.58695 13.7219C8.58695 13.5899 8.69564 13.4578 8.84781 13.4578H9.9782C10.1086 13.4578 10.2174 13.5458 10.2174 13.6779C10.3913 14.8442 10.8913 15.4165 13.1956 15.4165C15.0217 15.4165 15.8044 14.9984 15.8044 14.0081C15.8044 13.4358 15.587 13.0177 12.7391 12.7315C10.3696 12.4894 8.89129 11.9613 8.89129 10.0467C8.89129 8.26393 10.3695 7.2076 12.8478 7.2076C15.6304 7.2076 17 8.1759 17.1739 10.2887C17.1739 10.3547 17.1522 10.4207 17.1087 10.4867C17.0652 10.5307 17 10.5747 16.9348 10.5747H15.8044C15.6956 10.5747 15.587 10.4867 15.5652 10.3767C15.3043 9.1663 14.6304 8.77017 12.8478 8.77017C10.8479 8.77017 10.6087 9.47439 10.6087 10.0026C10.6087 10.6408 10.8913 10.8388 13.5869 11.1909C16.2609 11.543 17.5217 12.0493 17.5217 13.942C17.5 15.8787 15.9348 16.979 13.1739 16.979Z" fill="#539E43"/>
</g>
<defs>
<clipPath id="clip0_145_42">
<rect width="21" height="24" fill="white"/>
</clipPath>
</defs>
</svg>
