<svg width="21" height="21" viewBox="0 0 21 21" fill="none" xmlns="http://www.w3.org/2000/svg">
<path d="M0 10.5001C0 13.5505 4.70105 16.0235 10.5 16.0235C16.299 16.0235 21 13.5505 21 10.5001C21 7.44964 16.2988 4.97656 10.5 4.97656C4.70121 4.97656 0 7.44964 0 10.5001Z" fill="url(#paint0_radial_146_396)"/>
<path d="M10.5 15.6134C16.0724 15.6134 20.5898 13.3239 20.5898 10.5001C20.5898 7.67588 16.0724 5.38672 10.5 5.38672C4.92762 5.38672 0.410156 7.67588 0.410156 10.5001C0.410156 13.3239 4.92762 15.6134 10.5 15.6134Z" fill="#777BB3"/>
<path d="M5.70478 11.1339C6.163 11.1339 6.50491 11.0494 6.72131 10.8829C6.93557 10.7178 7.08339 10.4322 7.16099 10.0338C7.23318 9.66142 7.20562 9.40154 7.07896 9.26111C6.94968 9.11772 6.66996 9.04504 6.24766 9.04504H5.51528L5.10956 11.1339H5.70478ZM3.30963 13.7069C3.29282 13.7068 3.27624 13.7031 3.26105 13.6959C3.24586 13.6887 3.23246 13.6783 3.22179 13.6653C3.21113 13.6523 3.20347 13.6371 3.19937 13.6208C3.19527 13.6045 3.19482 13.5875 3.19807 13.571L4.27382 8.03589C4.27891 8.01001 4.2928 7.9867 4.31314 7.96992C4.33349 7.95313 4.35902 7.94392 4.38539 7.94385H6.70424C7.43301 7.94385 7.9754 8.14171 8.31649 8.53201C8.65905 8.92412 8.76503 9.47275 8.631 10.162C8.57636 10.4427 8.48252 10.7034 8.35209 10.937C8.21636 11.1773 8.04311 11.3944 7.8389 11.5801C7.58772 11.8151 7.3034 11.9857 6.99447 12.0859C6.69063 12.185 6.30016 12.2352 5.83455 12.2352H4.89546L4.62738 13.6147C4.62232 13.6406 4.60839 13.664 4.58797 13.6808C4.56756 13.6977 4.54194 13.7069 4.51549 13.7069H3.30963Z" fill="black"/>
<path d="M5.60931 9.1589H6.24768C6.75742 9.1589 6.93444 9.2708 6.99465 9.33757C7.09424 9.44815 7.11327 9.68161 7.04896 10.0122C6.97693 10.3825 6.84339 10.6451 6.65193 10.7925C6.45604 10.9434 6.1371 11.0199 5.70479 11.0199H5.24772L5.60931 9.1589ZM6.70426 7.83H4.38557C4.33269 7.83 4.28146 7.84838 4.24064 7.88199C4.19982 7.9156 4.17194 7.96235 4.16179 8.01424L3.08603 13.5495C3.07968 13.5825 3.08068 13.6165 3.08898 13.649C3.09727 13.6816 3.11265 13.7119 3.13401 13.7378C3.15537 13.7637 3.18219 13.7845 3.21255 13.7989C3.24291 13.8132 3.27607 13.8207 3.30965 13.8207H4.51551C4.56838 13.8207 4.61959 13.8023 4.66038 13.7686C4.70117 13.735 4.729 13.6882 4.73912 13.6363L4.98932 12.3491H5.8344C6.31215 12.3491 6.71443 12.2969 7.02993 12.1942C7.35428 12.0889 7.65271 11.9102 7.91685 11.6632C8.12957 11.4695 8.31006 11.2431 8.45153 10.9926C8.58786 10.7487 8.68597 10.4763 8.74274 10.1836C8.88383 9.45799 8.76915 8.87705 8.40215 8.45705C8.03858 8.04082 7.46732 7.82983 6.70426 7.82983V7.83ZM4.97127 11.2476H5.70479C6.19097 11.2477 6.553 11.1561 6.79089 10.9728C7.02878 10.7897 7.18945 10.4839 7.2729 10.0555C7.35253 9.64404 7.31616 9.35376 7.1638 9.18466C7.01122 9.01557 6.70585 8.93102 6.24768 8.93102H5.42146L4.97127 11.2476ZM6.70443 8.05739C7.40202 8.05739 7.91078 8.24048 8.2307 8.60667C8.55062 8.97286 8.64687 9.48397 8.51945 10.14C8.46673 10.4104 8.37786 10.6575 8.25285 10.8812C8.12761 11.1052 7.96404 11.3101 7.76214 11.496C7.52151 11.7213 7.25398 11.8818 6.95954 11.9775C6.66522 12.0733 6.29022 12.1212 5.83457 12.1211H4.80163L4.51567 13.5927H3.30981L4.38573 8.05739H6.70443Z" fill="white"/>
<path d="M11.3956 12.2352C11.3788 12.2352 11.3622 12.2315 11.347 12.2243C11.3318 12.2172 11.3183 12.2067 11.3076 12.1938C11.2969 12.1808 11.2892 12.1656 11.2851 12.1493C11.281 12.133 11.2805 12.116 11.2837 12.0995L11.7595 9.65039C11.805 9.41742 11.7938 9.2504 11.7283 9.17953C11.6881 9.13638 11.5677 9.06403 11.2115 9.06403H10.3492L9.75106 12.1432C9.74592 12.1691 9.73194 12.1924 9.7115 12.2092C9.69106 12.2259 9.66543 12.2351 9.639 12.235H8.44299C8.42619 12.235 8.40959 12.2313 8.39438 12.2242C8.37918 12.217 8.36574 12.2066 8.35504 12.1937C8.34433 12.1807 8.33662 12.1656 8.33245 12.1493C8.32828 12.133 8.32776 12.116 8.33093 12.0995L9.40685 6.56421C9.41195 6.53828 9.42589 6.51492 9.4463 6.49813C9.46671 6.48134 9.49232 6.47217 9.51874 6.47217H10.7148C10.7316 6.47216 10.7482 6.47586 10.7634 6.48301C10.7786 6.49016 10.792 6.50058 10.8027 6.51353C10.8134 6.52648 10.8211 6.54163 10.8253 6.55791C10.8295 6.57419 10.83 6.59118 10.8268 6.60768L10.5673 7.94381H11.4947C12.2013 7.94381 12.6804 8.06817 12.9595 8.3246C13.2438 8.58595 13.3327 9.00382 13.2233 9.56704L12.7227 12.1432C12.7176 12.1691 12.7036 12.1924 12.6832 12.2091C12.6628 12.2259 12.6372 12.235 12.6108 12.235L11.3956 12.2352Z" fill="black"/>
<path d="M10.7149 6.35815H9.51875C9.46585 6.35817 9.4146 6.37657 9.37377 6.41021C9.33295 6.44385 9.30509 6.49064 9.29497 6.54256L8.21921 12.0777C8.21283 12.1107 8.21381 12.1447 8.22209 12.1772C8.23038 12.2098 8.24575 12.2401 8.26711 12.266C8.28848 12.292 8.31531 12.3129 8.34568 12.3272C8.37606 12.3416 8.40923 12.349 8.44283 12.3491H9.63901C9.6919 12.349 9.74316 12.3306 9.78398 12.297C9.8248 12.2634 9.85266 12.2166 9.86279 12.1647L10.4431 9.1779H11.2112C11.5669 9.1779 11.6417 9.25386 11.6445 9.2573C11.6662 9.28027 11.6945 9.38773 11.6476 9.62874L11.1718 12.0777C11.1655 12.1107 11.1664 12.1447 11.1747 12.1773C11.183 12.2098 11.1984 12.2402 11.2198 12.2661C11.2412 12.292 11.268 12.3129 11.2984 12.3273C11.3288 12.3416 11.362 12.349 11.3956 12.3491H12.611C12.6639 12.349 12.7151 12.3306 12.7559 12.297C12.7967 12.2633 12.8245 12.2165 12.8346 12.1647L13.3352 9.58887C13.4525 8.98414 13.3521 8.53067 13.0366 8.24077C12.7354 7.96416 12.231 7.82979 11.4947 7.82979H10.7056L10.9387 6.62968C10.9451 6.59667 10.9442 6.56265 10.9359 6.53006C10.9276 6.49747 10.9122 6.46711 10.8908 6.44116C10.8694 6.41521 10.8426 6.39432 10.8122 6.37997C10.7818 6.36561 10.7486 6.35817 10.7149 6.35815ZM10.7149 6.5862L10.429 8.05751H11.4947C12.1653 8.05751 12.6278 8.17454 12.8822 8.40861C13.1368 8.64245 13.2133 9.02144 13.1116 9.54556L12.6108 12.1212H11.3956L11.8716 9.67205C11.9257 9.39347 11.9057 9.20349 11.8117 9.1021C11.7176 9.00082 11.5176 8.95018 11.2115 8.95018H10.2552L9.63901 12.121H8.44266L9.51858 6.58571H10.7149V6.5862Z" fill="white"/>
<path d="M15.1161 11.1339C15.5743 11.1339 15.9163 11.0494 16.1329 10.8829C16.3468 10.7178 16.4948 10.4322 16.5724 10.0338C16.6446 9.66142 16.6172 9.40154 16.4904 9.26111C16.3611 9.11772 16.0814 9.04504 15.6591 9.04504H14.9269L14.5208 11.1339H15.1161ZM12.7214 13.7069C12.7046 13.7069 12.6879 13.7032 12.6727 13.696C12.6575 13.6888 12.644 13.6784 12.6333 13.6654C12.6226 13.6524 12.6149 13.6372 12.6108 13.6209C12.6067 13.6046 12.6063 13.5875 12.6095 13.571L13.6853 8.03589C13.6904 8.00996 13.7043 7.9866 13.7247 7.96981C13.7451 7.95302 13.7707 7.94385 13.7972 7.94385H16.1158C16.8446 7.94385 17.387 8.14171 17.7279 8.53201C18.0707 8.92412 18.1765 9.47275 18.0424 10.162C17.9911 10.4334 17.8971 10.6951 17.7637 10.937C17.628 11.1773 17.4547 11.3944 17.2505 11.5801C16.9995 11.8151 16.7148 11.9857 16.4061 12.0859C16.1022 12.185 15.7118 12.2352 15.246 12.2352H14.3071L14.0391 13.6147C14.0341 13.6407 14.0201 13.6641 13.9997 13.6809C13.9792 13.6977 13.9536 13.7069 13.9271 13.7069H12.7214Z" fill="black"/>
<path d="M15.0207 9.1589H15.6591C16.1689 9.1589 16.3459 9.2708 16.4059 9.33757C16.506 9.44815 16.5247 9.68161 16.4606 10.0122C16.3884 10.3825 16.2548 10.6451 16.0634 10.7925C15.8673 10.9434 15.5484 11.0199 15.1162 11.0199H14.6592L15.0207 9.1589ZM16.1157 7.83H13.797C13.7442 7.83004 13.693 7.84844 13.6522 7.88204C13.6114 7.91565 13.5835 7.96238 13.5734 8.01424L12.4975 13.5495C12.4911 13.5825 12.4921 13.6165 12.5004 13.6491C12.5087 13.6816 12.5241 13.7119 12.5455 13.7378C12.5669 13.7637 12.5937 13.7846 12.6241 13.7989C12.6545 13.8133 12.6877 13.8207 12.7212 13.8207H13.9271C13.98 13.8207 14.0312 13.8023 14.072 13.7686C14.1128 13.735 14.1406 13.6882 14.1507 13.6363L14.4009 12.3491H15.2458C15.7234 12.3491 16.1259 12.2969 16.4412 12.1942C16.7657 12.0889 17.0641 11.9102 17.3285 11.663C17.5411 11.4694 17.7215 11.2431 17.863 10.9926C17.9995 10.7487 18.0972 10.4763 18.1542 10.1836C18.2953 9.45799 18.1808 8.87705 17.8136 8.45705C17.45 8.04082 16.8789 7.82983 16.1155 7.82983L16.1157 7.83ZM14.3827 11.2476H15.1161C15.6022 11.2477 15.9644 11.1561 16.2025 10.9728C16.4404 10.7897 16.6009 10.4839 16.6842 10.0555C16.7641 9.64404 16.7278 9.35376 16.5751 9.18466C16.4224 9.01557 16.1171 8.93102 15.6591 8.93102H14.8331L14.3827 11.2476ZM16.1157 8.05739C16.8133 8.05739 17.3221 8.24048 17.642 8.60667C17.9619 8.97286 18.0581 9.48397 17.9306 10.14C17.8781 10.4104 17.7892 10.6575 17.6641 10.8812C17.539 11.1052 17.3754 11.3101 17.1732 11.496C16.9326 11.7213 16.6651 11.8818 16.3707 11.9775C16.0764 12.0733 15.7015 12.1212 15.2458 12.1211H14.2131L13.9268 13.5927H12.7209L13.7968 8.05739H16.1157Z" fill="white"/>
<defs>
<radialGradient id="paint0_radial_146_396" cx="0" cy="0" r="1" gradientUnits="userSpaceOnUse" gradientTransform="translate(6.30427 6.91841) scale(13.788)">
<stop stop-color="#AEB2D5"/>
<stop offset="0.3" stop-color="#AEB2D5"/>
<stop offset="0.75" stop-color="#484C89"/>
<stop offset="1" stop-color="#484C89"/>
</radialGradient>
</defs>
</svg>
