<svg width="21" height="21" viewBox="0 0 21 21" fill="none" xmlns="http://www.w3.org/2000/svg">
<path d="M8.6275 1.75C7.9638 1.75 7.32728 2.01366 6.85797 2.48297C6.38866 2.95228 6.125 3.5888 6.125 4.2525V5.7225H9.87875C10.22 5.7225 10.5 6.22125 10.5 6.5625H4.2525C3.5888 6.5625 2.95228 6.82616 2.48297 7.29546C2.01366 7.76477 1.75 8.4013 1.75 9.065V12.3734C1.75 13.0371 2.01366 13.6736 2.48297 14.1429C2.95228 14.6122 3.5888 14.8759 4.2525 14.8759H5.285V12.5309C5.28385 12.2027 5.3475 11.8774 5.47231 11.5739C5.59712 11.2703 5.78062 10.9944 6.0123 10.7619C6.24398 10.5294 6.51928 10.3449 6.82241 10.219C7.12554 10.0932 7.45053 10.0284 7.77875 10.0284H12.3725C13.755 10.0284 14.875 8.91625 14.875 7.53375V4.2525C14.875 3.5888 14.6113 2.95228 14.142 2.48297C13.6727 2.01366 13.0362 1.75 12.3725 1.75H8.6275ZM7.9975 3.15875C8.3475 3.15875 8.6275 3.26375 8.6275 3.78C8.6275 4.29625 8.3475 4.55962 7.9975 4.55962C7.65625 4.55962 7.37625 4.29713 7.37625 3.78088C7.37625 3.26463 7.65625 3.15875 7.9975 3.15875Z" fill="#0288D1"/>
<path d="M15.7141 6.125V8.47C15.7152 8.79815 15.6514 9.12327 15.5266 9.42674C15.4017 9.7302 15.2182 10.006 14.9865 10.2384C14.7548 10.4708 14.4796 10.6552 14.1765 10.781C13.8734 10.9069 13.5485 10.9716 13.2204 10.9716H8.6275C8.29928 10.9705 7.97406 11.0341 7.6705 11.1589C7.36693 11.2837 7.09099 11.4672 6.85849 11.6989C6.626 11.9306 6.44153 12.2059 6.31566 12.509C6.18979 12.8122 6.125 13.1372 6.125 13.4654V16.7466C6.125 17.4103 6.38866 18.0468 6.85797 18.5162C7.32728 18.9855 7.9638 19.2491 8.6275 19.2491H12.3725C13.0361 19.2491 13.6724 18.9856 14.1417 18.5165C14.611 18.0473 14.8748 17.4111 14.875 16.7475V15.2775H11.1204C10.7791 15.2775 10.5 14.7787 10.5 14.4375H16.7475C17.4112 14.4375 18.0477 14.1738 18.517 13.7045C18.9863 13.2352 19.25 12.5987 19.25 11.935V8.6275C19.25 7.9638 18.9863 7.32728 18.517 6.85797C18.0477 6.38866 17.4112 6.125 16.7475 6.125H15.7141ZM7.28 10.0739L7.2765 10.0774L7.30975 10.0739H7.28ZM13.0025 16.4404C13.3437 16.4404 13.6237 16.7029 13.6237 17.2191C13.6237 17.3007 13.6077 17.3815 13.5765 17.4569C13.5452 17.5322 13.4995 17.6007 13.4418 17.6584C13.3841 17.7161 13.3156 17.7619 13.2402 17.7931C13.1649 17.8243 13.0841 17.8404 13.0025 17.8404C12.6525 17.8404 12.3725 17.7354 12.3725 17.2191C12.3725 16.7029 12.6525 16.4404 13.0025 16.4404Z" fill="#FDD835"/>
</svg>
