<svg width="24" height="24" viewBox="0 0 24 24" fill="none" xmlns="http://www.w3.org/2000/svg">
<path d="M11.9999 14.1373C13.1804 14.1373 14.1374 13.1803 14.1374 11.9998C14.1374 10.8193 13.1804 9.8623 11.9999 9.8623C10.8194 9.8623 9.86243 10.8193 9.86243 11.9998C9.86243 13.1803 10.8194 14.1373 11.9999 14.1373Z" fill="#61DAFB"/>
<path d="M20.1187 8.4748C19.7062 8.3248 19.275 8.1748 18.825 8.04355C18.9375 7.59355 19.0312 7.14355 19.1062 6.7123C19.5 4.2373 19.0687 2.49355 17.8687 1.81855C17.5125 1.6123 17.1187 1.51855 16.6687 1.51855C15.3562 1.51855 13.6875 2.49355 12 4.1248C10.3125 2.49355 8.6437 1.51855 7.3312 1.51855C6.8812 1.51855 6.48745 1.6123 6.1312 1.81855C4.9312 2.5123 4.49995 4.25605 4.8937 6.7123C4.9687 7.14355 5.06245 7.59355 5.17495 8.04355C4.72495 8.1748 4.2937 8.30605 3.8812 8.4748C1.53745 9.3748 0.262451 10.6123 0.262451 11.9998C0.262451 13.3873 1.5562 14.6248 3.8812 15.5248C4.2937 15.6748 4.72495 15.8248 5.17495 15.9561C5.06245 16.4061 4.9687 16.8561 4.8937 17.2873C4.49995 19.7623 4.9312 21.5061 6.1312 22.1811C6.48745 22.3873 6.8812 22.4811 7.3312 22.4811C8.66245 22.4811 10.3312 21.5061 12 19.8748C13.6875 21.5061 15.3562 22.4811 16.6687 22.4811C17.1187 22.4811 17.5125 22.3873 17.8687 22.1811C19.0687 21.4873 19.5 19.7436 19.1062 17.2873C19.0312 16.8561 18.9375 16.4061 18.825 15.9561C19.275 15.8248 19.7062 15.6936 20.1187 15.5248C22.4625 14.6248 23.7375 13.3873 23.7375 11.9998C23.7375 10.6123 22.4625 9.3748 20.1187 8.4748ZM17.3437 2.75605C18.1125 3.20605 18.375 4.59355 18.0562 6.5623C18 6.95605 17.9062 7.36855 17.7937 7.7998C16.8187 7.5748 15.7875 7.4248 14.7 7.33105C14.0625 6.43105 13.4062 5.6248 12.75 4.89355C14.1375 3.5248 15.5437 2.5873 16.6875 2.5873C16.9312 2.5873 17.1562 2.64355 17.3437 2.75605ZM15.2437 13.8748C14.9062 14.4748 14.5125 15.0748 14.1 15.6748C13.4062 15.7311 12.7125 15.7498 12 15.7498C11.2687 15.7498 10.575 15.7311 9.89995 15.6748C9.48745 15.0748 9.11245 14.4748 8.77495 13.8748C8.4187 13.2561 8.0812 12.6186 7.7812 11.9998C8.0812 11.3811 8.4187 10.7436 8.77495 10.1248C9.11245 9.5248 9.5062 8.9248 9.9187 8.3248C10.6125 8.26855 11.3062 8.2498 12.0187 8.2498C12.75 8.2498 13.4437 8.26855 14.1187 8.3248C14.5312 8.9248 14.9062 9.5248 15.2437 10.1248C15.6 10.7436 15.9375 11.3811 16.2375 11.9998C15.9187 12.6186 15.6 13.2373 15.2437 13.8748ZM16.8 13.2561C17.0812 13.9123 17.3062 14.5498 17.5125 15.1873C16.875 15.3373 16.2 15.4498 15.4875 15.5436C15.7125 15.1873 15.9562 14.8123 16.1625 14.4186C16.3875 14.0248 16.5937 13.6311 16.8 13.2561ZM12 18.3373C11.55 17.8498 11.1187 17.3248 10.7062 16.7811C11.1375 16.7998 11.5687 16.8186 12 16.8186C12.4312 16.8186 12.8625 16.7998 13.2937 16.7811C12.8812 17.3248 12.45 17.8498 12 18.3373ZM8.51245 15.5248C7.79995 15.4311 7.12495 15.3186 6.48745 15.1686C6.6937 14.5498 6.9187 13.8936 7.19995 13.2373C7.4062 13.6123 7.61245 14.0061 7.83745 14.3811C8.06245 14.7936 8.28745 15.1498 8.51245 15.5248ZM7.19995 10.7436C6.9187 10.0873 6.6937 9.4498 6.48745 8.8123C7.12495 8.6623 7.79995 8.5498 8.51245 8.45605C8.28745 8.8123 8.0437 9.1873 7.83745 9.58105C7.61245 9.9748 7.4062 10.3686 7.19995 10.7436ZM12 5.6623C12.45 6.1498 12.8812 6.6748 13.2937 7.21855C12.8625 7.1998 12.4312 7.18105 12 7.18105C11.5687 7.18105 11.1375 7.1998 10.7062 7.21855C11.1187 6.6748 11.55 6.1498 12 5.6623ZM16.1625 9.5998L15.4875 8.4748C16.2 8.56855 16.875 8.68105 17.5125 8.83105C17.3062 9.4498 17.0812 10.1061 16.8 10.7623C16.5937 10.3686 16.3875 9.9748 16.1625 9.5998ZM5.9437 6.5623C5.62495 4.59355 5.88745 3.20605 6.6562 2.75605C6.8437 2.64355 7.0687 2.5873 7.31245 2.5873C8.43745 2.5873 9.8437 3.50605 11.25 4.89355C10.5937 5.60605 9.93745 6.43105 9.29995 7.33105C8.21245 7.4248 7.1812 7.59355 6.2062 7.7998C6.0937 7.36855 6.0187 6.95605 5.9437 6.5623ZM1.31245 11.9998C1.31245 11.1186 2.3812 10.1811 4.2562 9.4873C4.6312 9.3373 5.0437 9.20605 5.4562 9.09355C5.7562 10.0311 6.1312 11.0248 6.5812 12.0186C6.1312 13.0123 5.73745 13.9873 5.4562 14.9248C2.8687 14.1748 1.31245 13.0498 1.31245 11.9998ZM6.6562 21.2436C5.88745 20.7936 5.62495 19.4061 5.9437 17.4373C5.99995 17.0436 6.0937 16.6311 6.2062 16.1998C7.1812 16.4248 8.21245 16.5748 9.29995 16.6686C9.93745 17.5686 10.5937 18.3748 11.25 19.1061C9.86245 20.4748 8.4562 21.4123 7.31245 21.4123C7.0687 21.4123 6.8437 21.3561 6.6562 21.2436ZM18.0562 17.4373C18.375 19.4061 18.1125 20.7936 17.3437 21.2436C17.1562 21.3561 16.9312 21.4123 16.6875 21.4123C15.5625 21.4123 14.1562 20.4936 12.75 19.1061C13.4062 18.3936 14.0625 17.5686 14.7 16.6686C15.7875 16.5748 16.8187 16.4061 17.7937 16.1998C17.9062 16.6311 17.9812 17.0436 18.0562 17.4373ZM19.7437 14.5123C19.3687 14.6623 18.9562 14.7936 18.5437 14.9061C18.2437 13.9686 17.8687 12.9748 17.4187 11.9811C17.8687 10.9873 18.2625 10.0123 18.5437 9.0748C21.1312 9.8248 22.6875 10.9498 22.6875 11.9998C22.6875 12.8811 21.6 13.8186 19.7437 14.5123Z" fill="#61DAFB"/>
</svg>
